<svg xmlns="http://www.w3.org/2000/svg" width="512" height="512" preserveAspectRatio="none" style="display:block" viewBox="0 0 2048 2048"><path fill="#d73323" d="M110.815 435.151c2.077-52.064-10.508-104.862 30.729-142.853a90.1 90.1 0 0 1 44.711-22.264c15.737-2.892 35.746-2.27 51.988-2.241l61.787.076 181.332-.048c30.536.004 61.244.205 91.775.034 14-.077 34.162-4.745 48.354-7.617l55.855-11.319 200.85-40.67L1642.38 53.613l144.94-29.363c23.16-4.707 79.02-17.752 99.99-16.763a93.68 93.68 0 0 1 64.39 30.734c6.78 7.485 13.93 17.81 17.05 27.354 8.1 24.784 14.13 58.446 19.12 84.158 4.58 23.652 18.05 79.191 16.91 100.738a92.57 92.57 0 0 1-30.73 64.296 97.3 97.3 0 0 1-36.66 20.611c-19.21 5.924-55.58 12.117-76.29 16.308L1717.57 380.7l-542.54 109.703-167.96 33.875c-24.627 4.936-64.901 11.539-87.532 18.21 22.893 1.67 58.944.1 83.462.122l176.91.095 541.43-.017 160.28-.051c22.71-.005 68.9-1.214 88.77 2.126a90.9 90.9 0 0 1 54.35 30.264c13.74 15.865 17.04 28.778 23.26 48.237v174.593c-7.59 23.633-9.61 30.019-24.62 49.964 19.32 24.934 14.33 24.092 24.62 49.716v156.193c-8.16 15.78-11.05 19.08-28.16 25-.84 21.37-.65 42.73-.6 64.12.01 5.18.02 9.18-.82 14.32 16.83 3.5 22.04 8.73 29.58 24.15v779.52c-10.17 31.57-20.36 53.57-51.5 69.93-14.98 7.87-29.52 10.1-46.37 10.23-40.11.21-80.41-.03-120.56-.03l-238.74.02-727.375.02H586.488c-19.743 0-102.442 2.43-115.937-1.95-7.358-2.39-13.971-7.34-17.339-14.39-1.84-3.85-2.952-8.42-3.816-12.6-26.216-.44-52.433-.03-78.654-.23-2.435 3.31-2.847 12.22-8.204 18.24-6.028 6.79-16.19 10.89-25.098 10.86-14.671-.05-33.857.5-48.167-.03-28.309-1.03-82.15 3.14-107.519-3.02a92.6 92.6 0 0 1-39.128-20.62c-32.725-29-32.151-61.25-31.514-101.67.283-17.99.057-36.72.063-54.76l.002-198.88-.014-637.69.003-205.622c.001-30.928 1.45-77.66-.448-107.411-6.472-2.866-16.746-5.687-24.576-9.002a141.44 141.44 0 0 1-76.727-78.799C5.576 613.408 4.195 601.4 0 591.785v-38.626c4.443-9.405 5.468-20.704 9.26-30.389a141.4 141.4 0 0 1 80.368-81.04c6.645-2.57 14.292-4.643 21.187-6.579"/><path d="M110.815 435.151c2.077-52.064-10.508-104.862 30.729-142.853a90.1 90.1 0 0 1 44.711-22.264c15.737-2.892 35.746-2.27 51.988-2.241l61.787.076 181.332-.048c30.536.004 61.244.205 91.775.034 14-.077 34.162-4.745 48.354-7.617l55.855-11.319 200.85-40.67L1642.38 53.613l144.94-29.363c23.16-4.707 79.02-17.752 99.99-16.763a93.68 93.68 0 0 1 64.39 30.734c6.78 7.485 13.93 17.81 17.05 27.354 8.1 24.784 14.13 58.446 19.12 84.158 4.58 23.652 18.05 79.191 16.91 100.738a92.57 92.57 0 0 1-30.73 64.296 97.3 97.3 0 0 1-36.66 20.611c-19.21 5.924-55.58 12.117-76.29 16.308L1717.57 380.7l-542.54 109.703-167.96 33.875c-24.627 4.936-64.901 11.539-87.532 18.21 22.893 1.67 58.944.1 83.462.122l176.91.095 541.43-.017 160.28-.051c22.71-.005 68.9-1.214 88.77 2.126a90.9 90.9 0 0 1 54.35 30.264c13.74 15.865 17.04 28.778 23.26 48.237v174.593c-7.59 23.633-9.61 30.019-24.62 49.964 19.32 24.934 14.33 24.092 24.62 49.716v156.193c-8.16 15.78-11.05 19.08-28.16 25-7.01-3.99-18.95-2.49-25.19-12.61-9.37-15.19-6.91-37.47-6.87-54.94l.21-69.683c.05-29.523 3.02-62.813-37.27-63.414-26.25-.392-52.58-.186-78.83-.176l-150.76.052-463.82.004-679.65-.009-223.057-.022c-40.53-.012-82.974-.637-123.373.18-3.277.203-7.934-.034-10.18 1.92-.759 4.013-.047 21.59.009 26.649l.076 51.847-.012 217.932.02 510.45-.004 167.55c-.014 28.99-.193 58.06.008 87.05.093 13.39 1.175 23.04 6.905 35.14l.865 1.86.535 1.11c22.452 1.03 45.367-.04 67.835.17 7.255.07 27.104-.67 33.043 1.03 7.916.31 13.977.29 21.451 3.3 11.273 4.55 16.228 14.17 18.136 25.62.227 1.36.18 1.11.825 2.1-2.435 3.31-2.847 12.22-8.204 18.24-6.028 6.79-16.19 10.89-25.098 10.86-14.671-.05-33.857.5-48.167-.03-28.309-1.03-82.15 3.14-107.519-3.02a92.6 92.6 0 0 1-39.128-20.62c-32.725-29-32.151-61.25-31.514-101.67.283-17.99.057-36.72.063-54.76l.002-198.88-.014-637.69.003-205.622c.001-30.928 1.45-77.66-.448-107.411-6.472-2.866-16.746-5.687-24.576-9.002a141.44 141.44 0 0 1-76.727-78.799C5.576 613.408 4.195 601.4 0 591.785v-38.626c4.443-9.405 5.468-20.704 9.26-30.389a141.4 141.4 0 0 1 80.368-81.04c6.645-2.57 14.292-4.643 21.187-6.579"/><path fill="#c22d23" d="M171.016 877.991q30.107-.267 60.214.121c-3.277.203-7.934-.034-10.18 1.92-.759 4.013-.047 21.59.009 26.649l.076 51.847-.012 217.932.02 510.45-.004 167.55c-.014 28.99-.193 58.06.008 87.05.093 13.39 1.175 23.04 6.905 35.14l.865 1.86.535 1.11c22.452 1.03 45.367-.04 67.835.17 7.255.07 27.104-.67 33.043 1.03q-1.378.06-2.76.09c-33.357.62-67.299-.28-100.664.13-15.299-.23-34.531 1.7-45.983-10.58-13.739-14.74-9.931-44.49-9.918-63.99l.064-71.99.001-230.14z"/><path fill="#48b5cc" d="M170.986 435.279c-.083-17.292.195-36.761-.193-53.852-1.218-53.587 18.578-53.768 63.269-53.404l236.775-.033 72.286.027c16.783.012 32.897-.629 49.592 1.872 12.165 1.823 23.559 12.97 24.867 25.209 1.835 17.176 1.138 35.768 1.113 53.185l-.116 91.476-.006 315.669-.01 2.357-20.4-.087-427.161.079-.097-107.197c22.488-6.834 28.843-9.386 48.589-21.212a135.2 135.2 0 0 0 35.088-33.171 138.23 138.23 0 0 0 25.6-103.205c-6.46-42.581-27.255-72.796-61.258-97.953-16.222-9.865-29.509-15.782-47.938-19.76"/><path fill="#37a9bb" d="M219.494 689.368c3.888 11.313 1.201 108.007 1.414 127.251l267.144-.006c13.788-.002 102.545-1.585 110.111 1.085l-427.161.079-.097-107.197c22.488-6.834 28.843-9.386 48.589-21.212M170.986 435.279c-.083-17.292.195-36.761-.193-53.852-1.218-53.587 18.578-53.768 63.269-53.404-2.354.541-4.463.49-5.684 2.033-13.985 17.668-2.958 114.676-9.454 124.983-16.222-9.865-29.509-15.782-47.938-19.76"/><path fill="#d0cfcf" d="m1285.77 187.409 1.21 1.551c-3.71 25.249-9.35 53.353-13.86 78.658l-26.17 146.832c-14.52 2.092-30.55 6.216-45.2 8.857-41.58 7.5-85.23 18.537-126.73 25.195l-.1-.096c-1.62-3.575 35.58-203.535 39.47-226.896 14.85-1.809 42.21-8.198 57.28-11.247z"/><path fill="#424456" d="m1049.03 235.461 1.35.811c-1.73 17.873-9.42 54.409-12.73 72.986l-27.08 152.677c-54.274 11.069-116.267 25.009-170.352 34.059l-1.57-.176-.749-1.733c9.07-55.763 32.805-175.547 39.663-224.679 13.744-1.571 34.046-6.789 48.283-9.389 40.461-7.39 82.785-18.107 123.185-24.556M1518.75 140.35l3.25-.607.98.935c-1.11 17.792-8.73 51.772-12.07 70.458l-27.4 155.468c-12.59 1.303-38.04 7.481-51.27 10.015-38.93 7.451-78 16.423-117.02 23.326-3.1.656-1.75.961-4.28-.091.41-9.166 9.3-53.303 11.32-64.178l16.58-93.803c3.81-21.234 9.15-47.177 11.73-68.283 15.34-2.078 32.31-6.385 47.69-9.185 39.63-7.216 80.94-17.545 120.49-24.055"/><path fill="#d0cfcf" d="m850.807 602.91 176.623.027c6.79 19.429 15.75 39.745 23.13 59.104 19.79 51.85 42.27 103.933 61.43 155.927-19.33-.894-44.08-.25-63.91-.253l-112.617.142c-7.178-20.671-17.539-44.248-25.522-64.932-19.311-50.03-40.175-99.851-59.134-150.015"/><path fill="#424456" d="m1574.65 602.947 176.62-.016c8.23 23.227 19.7 50.268 28.86 73.46l55.91 141.582c-56.45-1.192-119.97-.678-176.52-.019-26.46-70.929-57.27-143.983-84.87-215.007"/><path fill="#d0cfcf" d="M1755.74 92.298c2.41-.525 1.21-.58 3.59.202 1.1 4.639-35.35 203.817-39.42 226.027l-168.28 34.148c-3.05.334-1.79.768-4.09-.514 2.3-21.78 10.3-60.04 14.36-82.75 8.48-47.504 16.64-95.882 25.63-143.22 54.63-11.245 113.55-24.068 168.21-33.893M1332.96 603.053l177.17-.168c1.89 6.692 7.02 18.688 9.78 25.683l20.02 50.437c18.23 45.934 36.26 93.301 55.08 138.89-17.13-.932-42.13-.17-59.75-.168l-117.29.024c-3.35-9.935-8.12-22.266-12.36-31.858-26-58.816-45.85-124.748-72.65-182.84"/><path fill="#424456" d="M1092 603.097c56.74-1.505 119.29.116 176.62-.221 5.02 14.528 12.64 32.338 18.44 47.034l42.15 106.62c7.68 19.426 17.09 41.748 23.76 61.219l-176.06.163zM678.766 603.012l50.388-.007 56.938-.012c18.643 48.815 38.543 97.838 57.78 146.487l17.564 44.519c2.358 5.97 6.938 18.326 9.84 23.534-11.521 1.293-47.449.419-60.398.415l-132.007-.115z"/><path fill="#303344" d="m678.766 603.012 50.388-.007c.948 67.891 1.6 145.987.289 213.81l96.66-.018c8.55 0 37.84-.503 45.173.736-11.521 1.293-47.449.419-60.398.415l-132.007-.115z"/><path fill="#d0cfcf" d="m1815.92 603.022 94.38-.123c15.83-.011 33.27-.863 48.83 1.042 17.15 2.1 27.12 15.462 27.98 31.973 1.38 26.19.89 52.254.69 78.464-.2 25.203 1.56 50.964-1.36 75.945-.89 7.601-3.88 11.613-8.44 17.229-18.36 15.009-53.8 10.328-77.47 10.186-8.4-23.533-19.6-50.073-28.86-73.525z"/><path fill="#424456" d="M1877.53 68.386c22.5-3.241 34.79 11.458 38.76 31.721 5.21 26.661 11.78 53.742 16.47 80.447 3.4 19.353 11.03 45.747 11.7 64.795a31.96 31.96 0 0 1-4.94 17.941c-10 15.661-34.81 17.77-51.64 21.319-15.06 3.176-30.47 6.017-45.6 8.948-19.19 4.36-39.06 7.8-58.42 12.109 10.95-75.143 28.6-152.204 39.73-227.334 16.69-3.494 37.22-7.987 53.94-9.946"/><path fill="#d0cfcf" d="m723.203 300.866 59.76-11.952c8.589-1.702 23.604-4.22 31.604-6.456L774.01 509.889a2582 2582 0 0 0-43.561 8.796c-16.29 2.671-35.228 6.939-51.643 10.194-.642-39.953.516-80.243.04-120.238-.448-37.633 4.29-61.685-14.134-95.997 19.014-3.329 39.464-7.881 58.491-11.778"/><path fill="#ececeb" d="M664.712 312.644c19.014-3.329 39.464-7.881 58.491-11.778 8.442 24.784 5.786 65.856 6.383 92.321.916 40.541-1.739 85.24.863 125.498-16.29 2.671-35.228 6.939-51.643 10.194-.642-39.953.516-80.243.04-120.238-.448-37.633 4.29-61.685-14.134-95.997"/><path fill="#303344" d="M169.257 648.334c-33.62 12.557-71.491 1.362-92.882-27.455-21.39-28.817-21.141-68.307.61-96.853 21.752-28.545 59.762-39.261 93.221-26.282 31.175 12.093 51.64 42.185 51.429 75.622s-21.053 63.269-52.378 74.968"/><path fill="#424456" d="M170.206 497.744c31.175 12.093 51.64 42.185 51.429 75.622s-21.053 63.269-52.378 74.968c-1.47-4.772-7.07-12.178-10.023-16.708a102.95 102.95 0 0 1-16.01-41.597c-5.972-37.79 5.851-62.923 26.982-92.285"/><path d="M2018.42 1157.17c16.83 3.5 22.04 8.73 29.58 24.15v779.52c-10.17 31.57-20.36 53.57-51.5 69.93-14.98 7.87-29.52 10.1-46.37 10.23-40.11.21-80.41-.03-120.56-.03l-238.74.02-727.375.02H586.488c-19.743 0-102.442 2.43-115.937-1.95-7.358-2.39-13.971-7.34-17.339-14.39-1.84-3.85-2.952-8.42-3.816-12.6 4.599-38.13 38.314-31.16 67.168-31.15h336.102l860.124.01 159.69-.03c28.55.07 62.73 1.72 90.39-1.77 32.64-4.12 25.08-62.26 25.05-86.37l-.08-90.98.04-406.46-.06-131.46c-.01-23.56-.34-47.15.34-70.7.65-22.73 8.08-31.44 30.26-35.99"/><path d="M1040.06 1077.54c188.4-12.36 351.12 130.4 363.39 318.8 12.28 188.41-130.54 351.07-318.95 363.26-188.3 12.19-350.845-130.53-363.113-318.82s130.386-350.9 318.673-363.24"/><path fill="#ececeb" d="M971.087 1152.13c116.283-39.89 245.013.25 318.013 99.16 73.01 98.91 73.44 233.75 1.06 333.12s-200.85 140.32-317.386 101.17c-114.389-38.43-191.592-145.45-191.974-266.12s76.144-228.18 190.287-267.33"/><path fill="#d0cfcf" d="M971.087 1152.13c-.452 2.95-.067 4.1-2.271 5.96-7.894 6.69-16.648 13.02-24.634 19.59a308 308 0 0 0-44.596 44.85c-89.186 110.2-92.859 266.68-8.942 380.95 23.765 32.38 48.722 54.09 80.926 77.31.166.12 1.096 4.2 1.204 4.79-114.389-38.43-191.592-145.45-191.974-266.12s76.144-228.18 190.287-267.33"/><path d="M984.607 1273.17c16.633-2 34.393 11.21 48.823 19.31l56.98 32.05 78.59 44.07c11.24 6.3 46.56 23.81 52.31 33.91 18.06 31.72-17.02 46.36-39.36 58.85l-52.9 29.53-82.52 46.37c-14.33 8.06-29.28 17.42-44.15 24.12-23.773 10.7-42.897-6.39-42.924-30.83-.083-74.67-.531-149.16.045-223.8.142-18.44 7.192-28.35 25.106-33.58"/><path fill="#37a9bb" d="m1019.41 1353.43 49.45 28.04c20.5 11.39 45.92 26.64 66.4 36.83a4072 4072 0 0 1-65.16 36.48c-4.31 3.41-43.51 24.74-50.37 28.59-.44-43.31-.54-86.62-.32-129.94"/><path fill="#48b5cc" d="M1068.86 1381.47c20.5 11.39 45.92 26.64 66.4 36.83a4072 4072 0 0 1-65.16 36.48l-2.13-1.62c-2.72-9.88-2.98-61.93.89-71.69"/></svg>