<svg version="1.1" xmlns="http://www.w3.org/2000/svg" style="display: block;" viewBox="0 0 2048 2048" width="512" height="512" preserveAspectRatio="none">
<path transform="translate(0,0)" fill="rgb(215,51,35)" d="M 110.815 435.151 C 112.892 383.087 100.307 330.289 141.544 292.298 C 154.051 280.811 169.551 273.093 186.255 270.034 C 201.992 267.142 222.001 267.764 238.243 267.793 L 300.03 267.869 L 481.362 267.821 C 511.898 267.825 542.606 268.026 573.137 267.855 C 587.137 267.778 607.299 263.11 621.491 260.238 L 677.346 248.919 L 878.196 208.249 L 1642.38 53.6132 L 1787.32 24.2497 C 1810.48 19.5427 1866.34 6.49774 1887.31 7.48687 C 1911.99 8.83691 1935.13 19.8838 1951.7 38.2208 C 1958.48 45.7055 1965.63 56.0307 1968.75 65.5747 C 1976.85 90.3589 1982.88 124.021 1987.87 149.733 C 1992.45 173.385 2005.92 228.924 2004.78 250.471 C 2003.53 275.144 1992.46 298.294 1974.05 314.767 C 1963.48 324.228 1950.96 331.262 1937.39 335.378 C 1918.18 341.302 1881.81 347.495 1861.1 351.686 L 1717.57 380.7 L 1175.03 490.403 L 1007.07 524.278 C 982.443 529.214 942.169 535.817 919.538 542.488 C 942.431 544.158 978.482 542.588 1003 542.61 L 1179.91 542.705 L 1721.34 542.688 L 1881.62 542.637 C 1904.33 542.632 1950.52 541.423 1970.39 544.763 C 1991.5 548.145 2010.75 558.861 2024.74 575.027 C 2038.48 590.892 2041.78 603.805 2048 623.264 L 2048 797.857 C 2040.41 821.49 2038.39 827.876 2023.38 847.821 C 2042.7 872.755 2037.71 871.913 2048 897.537 L 2048 1053.73 C 2039.84 1069.51 2036.95 1072.81 2019.84 1078.73 C 2019 1100.1 2019.19 1121.46 2019.24 1142.85 C 2019.25 1148.03 2019.26 1152.03 2018.42 1157.17 C 2035.25 1160.67 2040.46 1165.9 2048 1181.32 L 2048 1960.84 C 2037.83 1992.41 2027.64 2014.41 1996.5 2030.77 C 1981.52 2038.64 1966.98 2040.87 1950.13 2041 C 1910.02 2041.21 1869.72 2040.97 1829.57 2040.97 L 1590.83 2040.99 L 863.455 2041.01 L 586.488 2041.01 C 566.745 2041.01 484.046 2043.44 470.551 2039.06 C 463.193 2036.67 456.58 2031.72 453.212 2024.67 C 451.372 2020.82 450.26 2016.25 449.396 2012.07 C 423.18 2011.63 396.963 2012.04 370.742 2011.84 C 368.307 2015.15 367.895 2024.06 362.538 2030.08 C 356.51 2036.87 346.348 2040.97 337.44 2040.94 C 322.769 2040.89 303.583 2041.44 289.273 2040.91 C 260.964 2039.88 207.123 2044.05 181.754 2037.89 C 167.237 2034.28 153.811 2027.2 142.626 2017.27 C 109.901 1988.27 110.475 1956.02 111.112 1915.6 C 111.395 1897.61 111.169 1878.88 111.175 1860.84 L 111.177 1661.96 L 111.163 1024.27 L 111.166 818.648 C 111.167 787.72 112.616 740.988 110.718 711.237 C 104.246 708.371 93.9721 705.55 86.1418 702.235 C 50.9829 687.396 23.3127 658.978 9.41511 623.436 C 5.57605 613.408 4.19517 601.4 0 591.785 L 0 553.159 C 4.44316 543.754 5.46781 532.455 9.26084 522.77 C 23.4725 485.664 52.6419 456.251 89.6283 441.73 C 96.2728 439.16 103.92 437.087 110.815 435.151 z"/>
<path transform="translate(0,0)" fill="rgb(0,0,0)" d="M 110.815 435.151 C 112.892 383.087 100.307 330.289 141.544 292.298 C 154.051 280.811 169.551 273.093 186.255 270.034 C 201.992 267.142 222.001 267.764 238.243 267.793 L 300.03 267.869 L 481.362 267.821 C 511.898 267.825 542.606 268.026 573.137 267.855 C 587.137 267.778 607.299 263.11 621.491 260.238 L 677.346 248.919 L 878.196 208.249 L 1642.38 53.6132 L 1787.32 24.2497 C 1810.48 19.5427 1866.34 6.49774 1887.31 7.48687 C 1911.99 8.83691 1935.13 19.8838 1951.7 38.2208 C 1958.48 45.7055 1965.63 56.0307 1968.75 65.5747 C 1976.85 90.3589 1982.88 124.021 1987.87 149.733 C 1992.45 173.385 2005.92 228.924 2004.78 250.471 C 2003.53 275.144 1992.46 298.294 1974.05 314.767 C 1963.48 324.228 1950.96 331.262 1937.39 335.378 C 1918.18 341.302 1881.81 347.495 1861.1 351.686 L 1717.57 380.7 L 1175.03 490.403 L 1007.07 524.278 C 982.443 529.214 942.169 535.817 919.538 542.488 C 942.431 544.158 978.482 542.588 1003 542.61 L 1179.91 542.705 L 1721.34 542.688 L 1881.62 542.637 C 1904.33 542.632 1950.52 541.423 1970.39 544.763 C 1991.5 548.145 2010.75 558.861 2024.74 575.027 C 2038.48 590.892 2041.78 603.805 2048 623.264 L 2048 797.857 C 2040.41 821.49 2038.39 827.876 2023.38 847.821 C 2042.7 872.755 2037.71 871.913 2048 897.537 L 2048 1053.73 C 2039.84 1069.51 2036.95 1072.81 2019.84 1078.73 C 2012.83 1074.74 2000.89 1076.24 1994.65 1066.12 C 1985.28 1050.93 1987.74 1028.65 1987.78 1011.18 L 1987.99 941.497 C 1988.04 911.974 1991.01 878.684 1950.72 878.083 C 1924.47 877.691 1898.14 877.897 1871.89 877.907 L 1721.13 877.959 L 1257.31 877.963 L 577.66 877.954 L 354.603 877.932 C 314.073 877.92 271.629 877.295 231.23 878.112 C 227.953 878.315 223.296 878.078 221.05 880.032 C 220.291 884.045 221.003 901.622 221.059 906.681 L 221.135 958.528 L 221.123 1176.46 L 221.143 1686.91 L 221.139 1854.46 C 221.125 1883.45 220.946 1912.52 221.147 1941.51 C 221.24 1954.9 222.322 1964.55 228.052 1976.65 L 228.917 1978.51 L 229.452 1979.62 C 251.904 1980.65 274.819 1979.58 297.287 1979.79 C 304.542 1979.86 324.391 1979.12 330.33 1980.82 C 338.246 1981.13 344.307 1981.11 351.781 1984.12 C 363.054 1988.67 368.009 1998.29 369.917 2009.74 C 370.144 2011.1 370.097 2010.85 370.742 2011.84 C 368.307 2015.15 367.895 2024.06 362.538 2030.08 C 356.51 2036.87 346.348 2040.97 337.44 2040.94 C 322.769 2040.89 303.583 2041.44 289.273 2040.91 C 260.964 2039.88 207.123 2044.05 181.754 2037.89 C 167.237 2034.28 153.811 2027.2 142.626 2017.27 C 109.901 1988.27 110.475 1956.02 111.112 1915.6 C 111.395 1897.61 111.169 1878.88 111.175 1860.84 L 111.177 1661.96 L 111.163 1024.27 L 111.166 818.648 C 111.167 787.72 112.616 740.988 110.718 711.237 C 104.246 708.371 93.9721 705.55 86.1418 702.235 C 50.9829 687.396 23.3127 658.978 9.41511 623.436 C 5.57605 613.408 4.19517 601.4 0 591.785 L 0 553.159 C 4.44316 543.754 5.46781 532.455 9.26084 522.77 C 23.4725 485.664 52.6419 456.251 89.6283 441.73 C 96.2728 439.16 103.92 437.087 110.815 435.151 z"/>
<path transform="translate(0,0)" fill="rgb(194,45,35)" d="M 171.016 877.991 C 191.087 877.813 211.159 877.853 231.23 878.112 C 227.953 878.315 223.296 878.078 221.05 880.032 C 220.291 884.045 221.003 901.622 221.059 906.681 L 221.135 958.528 L 221.123 1176.46 L 221.143 1686.91 L 221.139 1854.46 C 221.125 1883.45 220.946 1912.52 221.147 1941.51 C 221.24 1954.9 222.322 1964.55 228.052 1976.65 L 228.917 1978.51 L 229.452 1979.62 C 251.904 1980.65 274.819 1979.58 297.287 1979.79 C 304.542 1979.86 324.391 1979.12 330.33 1980.82 C 329.411 1980.86 328.491 1980.89 327.57 1980.91 C 294.213 1981.53 260.271 1980.63 226.906 1981.04 C 211.607 1980.81 192.375 1982.74 180.923 1970.46 C 167.184 1955.72 170.992 1925.97 171.005 1906.47 L 171.069 1834.48 L 171.07 1604.34 L 171.016 877.991 z"/>
<path transform="translate(0,0)" fill="rgb(72,181,204)" d="M 170.986 435.279 C 170.903 417.987 171.181 398.518 170.793 381.427 C 169.575 327.84 189.371 327.659 234.062 328.023 L 470.837 327.99 L 543.123 328.017 C 559.906 328.029 576.02 327.388 592.715 329.889 C 604.88 331.712 616.274 342.859 617.582 355.098 C 619.417 372.274 618.72 390.866 618.695 408.283 L 618.579 499.759 L 618.573 815.428 L 618.563 817.785 L 598.163 817.698 L 171.002 817.777 L 170.905 710.58 C 193.393 703.746 199.748 701.194 219.494 689.368 C 233.085 680.506 244.971 669.269 254.582 656.197 C 276.535 626.584 285.751 589.431 280.182 552.992 C 273.722 510.411 252.927 480.196 218.924 455.039 C 202.702 445.174 189.415 439.257 170.986 435.279 z"/>
<path transform="translate(0,0)" fill="rgb(55,169,187)" d="M 219.494 689.368 C 223.382 700.681 220.695 797.375 220.908 816.619 L 488.052 816.613 C 501.84 816.611 590.597 815.028 598.163 817.698 L 171.002 817.777 L 170.905 710.58 C 193.393 703.746 199.748 701.194 219.494 689.368 z"/>
<path transform="translate(0,0)" fill="rgb(55,169,187)" d="M 170.986 435.279 C 170.903 417.987 171.181 398.518 170.793 381.427 C 169.575 327.84 189.371 327.659 234.062 328.023 C 231.708 328.564 229.599 328.513 228.378 330.056 C 214.393 347.724 225.42 444.732 218.924 455.039 C 202.702 445.174 189.415 439.257 170.986 435.279 z"/>
<path transform="translate(0,0)" fill="rgb(208,207,207)" d="M 1285.77 187.409 L 1286.98 188.96 C 1283.27 214.209 1277.63 242.313 1273.12 267.618 L 1246.95 414.45 C 1232.43 416.542 1216.4 420.666 1201.75 423.307 C 1160.17 430.807 1116.52 441.844 1075.02 448.502 L 1074.92 448.406 C 1073.3 444.831 1110.5 244.871 1114.39 221.51 C 1129.24 219.701 1156.6 213.312 1171.67 210.263 L 1285.77 187.409 z"/>
<path transform="translate(0,0)" fill="rgb(66,68,86)" d="M 1049.03 235.461 L 1050.38 236.272 C 1048.65 254.145 1040.96 290.681 1037.65 309.258 L 1010.57 461.935 C 956.296 473.004 894.303 486.944 840.218 495.994 L 838.648 495.818 C 838.399 495.24 838.149 494.663 837.899 494.085 C 846.969 438.322 870.704 318.538 877.562 269.406 C 891.306 267.835 911.608 262.617 925.845 260.017 C 966.306 252.627 1008.63 241.91 1049.03 235.461 z"/>
<path transform="translate(0,0)" fill="rgb(66,68,86)" d="M 1518.75 140.35 L 1522 139.743 L 1522.98 140.678 C 1521.87 158.47 1514.25 192.45 1510.91 211.136 L 1483.51 366.604 C 1470.92 367.907 1445.47 374.085 1432.24 376.619 C 1393.31 384.07 1354.24 393.042 1315.22 399.945 C 1312.12 400.601 1313.47 400.906 1310.94 399.854 C 1311.35 390.688 1320.24 346.551 1322.26 335.676 L 1338.84 241.873 C 1342.65 220.639 1347.99 194.696 1350.57 173.59 C 1365.91 171.512 1382.88 167.205 1398.26 164.405 C 1437.89 157.189 1479.2 146.86 1518.75 140.35 z"/>
<path transform="translate(0,0)" fill="rgb(208,207,207)" d="M 850.807 602.91 L 1027.43 602.937 C 1034.22 622.366 1043.18 642.682 1050.56 662.041 C 1070.35 713.891 1092.83 765.974 1111.99 817.968 C 1092.66 817.074 1067.91 817.718 1048.08 817.715 L 935.463 817.857 C 928.285 797.186 917.924 773.609 909.941 752.925 C 890.63 702.895 869.766 653.074 850.807 602.91 z"/>
<path transform="translate(0,0)" fill="rgb(66,68,86)" d="M 1574.65 602.947 L 1751.27 602.931 C 1759.5 626.158 1770.97 653.199 1780.13 676.391 L 1836.04 817.973 C 1779.59 816.781 1716.07 817.295 1659.52 817.954 C 1633.06 747.025 1602.25 673.971 1574.65 602.947 z"/>
<path transform="translate(0,0)" fill="rgb(208,207,207)" d="M 1755.74 92.2981 C 1758.15 91.7735 1756.95 91.7183 1759.33 92.4997 C 1760.43 97.1388 1723.98 296.317 1719.91 318.527 L 1551.63 352.675 C 1548.58 353.009 1549.84 353.443 1547.54 352.161 C 1549.84 330.381 1557.84 292.121 1561.9 269.411 C 1570.38 221.907 1578.54 173.529 1587.53 126.191 C 1642.16 114.946 1701.08 102.123 1755.74 92.2981 z"/>
<path transform="translate(0,0)" fill="rgb(208,207,207)" d="M 1332.96 603.053 L 1510.13 602.885 C 1512.02 609.577 1517.15 621.573 1519.91 628.568 L 1539.93 679.005 C 1558.16 724.939 1576.19 772.306 1595.01 817.895 C 1577.88 816.963 1552.88 817.725 1535.26 817.727 L 1417.97 817.751 C 1414.62 807.816 1409.85 795.485 1405.61 785.893 C 1379.61 727.077 1359.76 661.145 1332.96 603.053 z"/>
<path transform="translate(0,0)" fill="rgb(66,68,86)" d="M 1092 603.097 C 1148.74 601.592 1211.29 603.213 1268.62 602.876 C 1273.64 617.404 1281.26 635.214 1287.06 649.91 L 1329.21 756.53 C 1336.89 775.956 1346.3 798.278 1352.97 817.749 L 1176.91 817.912 L 1092 603.097 z"/>
<path transform="translate(0,0)" fill="rgb(66,68,86)" d="M 678.766 603.012 L 729.154 603.005 L 786.092 602.993 C 804.735 651.808 824.635 700.831 843.872 749.48 L 861.436 793.999 C 863.794 799.969 868.374 812.325 871.276 817.533 C 859.755 818.826 823.827 817.952 810.878 817.948 L 678.871 817.833 L 678.766 603.012 z"/>
<path transform="translate(0,0)" fill="rgb(48,51,68)" d="M 678.766 603.012 L 729.154 603.005 C 730.102 670.896 730.754 748.992 729.443 816.815 L 826.103 816.797 C 834.653 816.797 863.943 816.294 871.276 817.533 C 859.755 818.826 823.827 817.952 810.878 817.948 L 678.871 817.833 L 678.766 603.012 z"/>
<path transform="translate(0,0)" fill="rgb(208,207,207)" d="M 1815.92 603.022 L 1910.3 602.899 C 1926.13 602.888 1943.57 602.036 1959.13 603.941 C 1976.28 606.041 1986.25 619.403 1987.11 635.914 C 1988.49 662.104 1988 688.168 1987.8 714.378 C 1987.6 739.581 1989.36 765.342 1986.44 790.323 C 1985.55 797.924 1982.56 801.936 1978 807.552 C 1959.64 822.561 1924.2 817.88 1900.53 817.738 C 1892.13 794.205 1880.93 767.665 1871.67 744.213 L 1815.92 603.022 z"/>
<path transform="translate(0,0)" fill="rgb(66,68,86)" d="M 1877.53 68.3858 C 1900.03 65.145 1912.32 79.844 1916.29 100.107 C 1921.5 126.768 1928.07 153.849 1932.76 180.554 C 1936.16 199.907 1943.79 226.301 1944.46 245.349 C 1944.63 251.686 1942.91 257.93 1939.52 263.29 C 1929.52 278.951 1904.71 281.06 1887.88 284.609 C 1872.82 287.785 1857.41 290.626 1842.28 293.557 C 1823.09 297.917 1803.22 301.357 1783.86 305.666 C 1794.81 230.523 1812.46 153.462 1823.59 78.3325 C 1840.28 74.8382 1860.81 70.3453 1877.53 68.3858 z"/>
<path transform="translate(0,0)" fill="rgb(208,207,207)" d="M 723.203 300.866 L 782.963 288.914 C 791.552 287.212 806.567 284.694 814.567 282.458 L 774.01 509.889 C 759.465 512.696 744.944 515.628 730.449 518.685 C 714.159 521.356 695.221 525.624 678.806 528.879 C 678.164 488.926 679.322 448.636 678.846 408.641 C 678.398 371.008 683.136 346.956 664.712 312.644 C 683.726 309.315 704.176 304.763 723.203 300.866 z"/>
<path transform="translate(0,0)" fill="rgb(236,236,235)" d="M 664.712 312.644 C 683.726 309.315 704.176 304.763 723.203 300.866 C 731.645 325.65 728.989 366.722 729.586 393.187 C 730.502 433.728 727.847 478.427 730.449 518.685 C 714.159 521.356 695.221 525.624 678.806 528.879 C 678.164 488.926 679.322 448.636 678.846 408.641 C 678.398 371.008 683.136 346.956 664.712 312.644 z"/>
<path transform="translate(0,0)" fill="rgb(48,51,68)" d="M 169.257 648.334 C 135.637 660.891 97.7656 649.696 76.3753 620.879 C 54.985 592.062 55.2339 552.572 76.9856 524.026 C 98.7372 495.481 136.747 484.765 170.206 497.744 C 201.381 509.837 221.846 539.929 221.635 573.366 C 221.424 606.803 200.582 636.635 169.257 648.334 z"/>
<path transform="translate(0,0)" fill="rgb(66,68,86)" d="M 170.206 497.744 C 201.381 509.837 221.846 539.929 221.635 573.366 C 221.424 606.803 200.582 636.635 169.257 648.334 C 167.787 643.562 162.187 636.156 159.234 631.626 C 150.924 619.096 145.459 604.898 143.224 590.029 C 137.252 552.239 149.075 527.106 170.206 497.744 z"/>
<path transform="translate(0,0)" fill="rgb(0,0,0)" d="M 2018.42 1157.17 C 2035.25 1160.67 2040.46 1165.9 2048 1181.32 L 2048 1960.84 C 2037.83 1992.41 2027.64 2014.41 1996.5 2030.77 C 1981.52 2038.64 1966.98 2040.87 1950.13 2041 C 1910.02 2041.21 1869.72 2040.97 1829.57 2040.97 L 1590.83 2040.99 L 863.455 2041.01 L 586.488 2041.01 C 566.745 2041.01 484.046 2043.44 470.551 2039.06 C 463.193 2036.67 456.58 2031.72 453.212 2024.67 C 451.372 2020.82 450.26 2016.25 449.396 2012.07 C 453.995 1973.94 487.71 1980.91 516.564 1980.92 L 592.639 1980.92 L 852.666 1980.92 L 1712.79 1980.93 L 1872.48 1980.9 C 1901.03 1980.97 1935.21 1982.62 1962.87 1979.13 C 1995.51 1975.01 1987.95 1916.87 1987.92 1892.76 L 1987.84 1801.78 L 1987.88 1395.32 L 1987.82 1263.86 C 1987.81 1240.3 1987.48 1216.71 1988.16 1193.16 C 1988.81 1170.43 1996.24 1161.72 2018.42 1157.17 z"/>
<path transform="translate(0,0)" fill="rgb(0,0,0)" d="M 1040.06 1077.54 C 1228.46 1065.18 1391.18 1207.94 1403.45 1396.34 C 1415.73 1584.75 1272.91 1747.41 1084.5 1759.6 C 896.2 1771.79 733.655 1629.07 721.387 1440.78 C 709.119 1252.49 851.773 1089.88 1040.06 1077.54 z"/>
<path transform="translate(0,0)" fill="rgb(236,236,235)" d="M 971.087 1152.13 C 1087.37 1112.24 1216.1 1152.38 1289.1 1251.29 C 1362.11 1350.2 1362.54 1485.04 1290.16 1584.41 C 1217.78 1683.78 1089.31 1724.73 972.774 1685.58 C 858.385 1647.15 781.182 1540.13 780.8 1419.46 C 780.419 1298.79 856.944 1191.28 971.087 1152.13 z"/>
<path transform="translate(0,0)" fill="rgb(208,207,207)" d="M 971.087 1152.13 C 970.635 1155.08 971.02 1156.23 968.816 1158.09 C 960.922 1164.78 952.168 1171.11 944.182 1177.68 C 927.816 1191.06 912.872 1206.09 899.586 1222.53 C 810.4 1332.73 806.727 1489.21 890.644 1603.48 C 914.409 1635.86 939.366 1657.57 971.57 1680.79 C 971.736 1680.91 972.666 1684.99 972.774 1685.58 C 858.385 1647.15 781.182 1540.13 780.8 1419.46 C 780.419 1298.79 856.944 1191.28 971.087 1152.13 z"/>
<path transform="translate(0,0)" fill="rgb(0,0,0)" d="M 984.607 1273.17 C 1001.24 1271.17 1019 1284.38 1033.43 1292.48 L 1090.41 1324.53 L 1169 1368.6 C 1180.24 1374.9 1215.56 1392.41 1221.31 1402.51 C 1239.37 1434.23 1204.29 1448.87 1181.95 1461.36 L 1129.05 1490.89 L 1046.53 1537.26 C 1032.2 1545.32 1017.25 1554.68 1002.38 1561.38 C 978.607 1572.08 959.483 1554.99 959.456 1530.55 C 959.373 1455.88 958.925 1381.39 959.501 1306.75 C 959.643 1288.31 966.693 1278.4 984.607 1273.17 z"/>
<path transform="translate(0,0)" fill="rgb(55,169,187)" d="M 1019.41 1353.43 L 1068.86 1381.47 C 1089.36 1392.86 1114.78 1408.11 1135.26 1418.3 C 1113.65 1430.66 1091.93 1442.82 1070.1 1454.78 C 1065.79 1458.19 1026.59 1479.52 1019.73 1483.37 C 1019.29 1440.06 1019.19 1396.75 1019.41 1353.43 z"/>
<path transform="translate(0,0)" fill="rgb(72,181,204)" d="M 1068.86 1381.47 C 1089.36 1392.86 1114.78 1408.11 1135.26 1418.3 C 1113.65 1430.66 1091.93 1442.82 1070.1 1454.78 L 1067.97 1453.16 C 1065.25 1443.28 1064.99 1391.23 1068.86 1381.47 z"/>
</svg>