<?xml version="1.0" standalone="no"?>
<!DOCTYPE svg PUBLIC "-//W3C//DTD SVG 20010904//EN"
 "http://www.w3.org/TR/2001/REC-SVG-20010904/DTD/svg10.dtd">
<svg version="1.0" xmlns="http://www.w3.org/2000/svg"
 width="512.000000pt" height="512.000000pt" viewBox="0 0 512.000000 512.000000"
 preserveAspectRatio="xMidYMid meet">

<g transform="translate(0.000000,512.000000) scale(0.100000,-0.100000)"
fill="#000000" stroke="none">
<path d="M4133 5030 c-45 -9 -66 -16 -1008 -315 -603 -192 -897 -285 -2175
-689 -289 -92 -553 -180 -587 -196 -115 -56 -203 -156 -253 -285 -33 -86 -34
-231 -2 -333 l23 -73 -21 -57 c-97 -258 63 -556 335 -627 169 -43 352 10 469
136 61 66 112 159 122 225 l6 44 300 0 299 0 -194 -287 -195 -288 -492 -5
-492 -5 -24 -28 -24 -28 0 -852 c0 -940 -2 -909 63 -1031 66 -126 209 -229
352 -256 43 -8 604 -10 2035 -8 l1975 3 59 23 c176 67 306 221 336 400 7 46
10 281 8 750 l-3 684 -24 19 c-32 26 -82 25 -109 -4 l-22 -23 0 -682 c0 -466
-4 -698 -11 -734 -24 -110 -86 -191 -187 -240 l-67 -33 -1990 0 -1990 0 -62
29 c-73 33 -144 103 -176 174 -22 47 -22 48 -25 865 l-2 817 2306 0 2306 0 29
30 30 30 -3 297 -3 298 -28 57 c-34 69 -92 129 -155 160 l-47 23 -1890 5
-1890 5 80 27 c44 15 863 275 1820 578 957 304 1752 558 1767 566 66 34 104
128 87 217 -10 53 -78 270 -102 327 -26 60 -101 154 -155 193 -119 88 -265
123 -399 97z m235 -185 c71 -32 143 -102 171 -167 10 -24 37 -105 61 -181 34
-111 40 -140 30 -152 -15 -18 -139 -57 -154 -47 -22 13 -592 445 -609 462 -20
19 -28 15 233 97 98 30 182 27 268 -12z m-391 -372 c173 -130 310 -240 306
-244 -4 -4 -168 -57 -363 -119 -195 -62 -360 -114 -365 -117 -9 -3 -222 140
-604 405 l-93 65 383 122 c211 68 393 123 404 124 11 1 155 -102 332 -236z
m-972 -307 c182 -125 331 -230 332 -234 2 -4 -156 -57 -349 -118 l-353 -111
-340 229 c-187 126 -341 232 -342 236 -4 9 687 231 707 228 8 -2 164 -105 345
-230z m-912 -291 c187 -125 335 -231 330 -235 -8 -7 -672 -220 -687 -220 -8 0
-733 416 -754 433 -10 8 90 43 370 133 211 67 388 121 393 119 6 -1 162 -105
348 -230z m-910 -324 c185 -107 334 -198 330 -202 -5 -3 -126 -43 -271 -88
l-263 -83 -21 29 c-154 203 -427 258 -642 128 -32 -19 -61 -33 -64 -31 -2 3
-7 25 -9 49 -12 106 50 241 140 305 31 22 102 51 209 86 l163 53 46 -26 c25
-14 197 -114 382 -220z m-500 -327 c64 -22 140 -92 174 -162 24 -49 28 -69 28
-142 0 -79 -3 -90 -36 -150 -60 -109 -162 -170 -285 -170 -119 0 -224 63 -283
170 -33 60 -36 71 -36 150 0 98 19 152 80 219 91 101 221 132 358 85z m1907
-370 c0 -4 -69 -134 -152 -290 l-153 -284 -417 0 c-230 0 -418 2 -418 6 0 3
86 133 192 290 l192 284 378 0 c208 0 378 -3 378 -6z m860 -1 c0 -5 -65 -134
-143 -288 l-143 -280 -347 -3 c-191 -1 -347 0 -347 2 0 5 244 459 287 534 l24
42 334 0 c184 0 335 -3 335 -7z m950 2 c0 -3 -64 -133 -142 -290 l-143 -285
-388 0 -388 0 148 290 148 290 383 0 c210 0 382 -2 382 -5z m410 -18 c70 -47
75 -65 78 -324 l3 -233 -295 0 c-163 0 -296 2 -296 3 0 2 63 133 140 290 l141
287 98 0 c85 0 102 -3 131 -23z"/>
<path d="M700 1330 c-26 -26 -26 -80 -1 -111 l19 -24 1146 0 1145 0 23 22 c28
28 29 84 3 113 -18 20 -22 20 -1167 20 -1135 0 -1148 0 -1168 -20z"/>
<path d="M705 855 c-16 -15 -25 -36 -25 -55 0 -19 9 -40 25 -55 l24 -25 476 0
476 0 24 25 c16 15 25 36 25 55 0 19 -9 40 -25 55 l-24 25 -476 0 -476 0 -24
-25z"/>
</g>
</svg>
