<?xml version="1.0" standalone="no"?>
<!DOCTYPE svg PUBLIC "-//W3C//DTD SVG 20010904//EN"
 "http://www.w3.org/TR/2001/REC-SVG-20010904/DTD/svg10.dtd">
<svg version="1.0" xmlns="http://www.w3.org/2000/svg"
 width="512.000000pt" height="512.000000pt" viewBox="0 0 512.000000 512.000000"
 preserveAspectRatio="xMidYMid meet">
<metadata>
Created by potrace 1.16, written by Peter Selinger 2001-2019
</metadata>
<g transform="translate(0.000000,512.000000) scale(0.100000,-0.100000)"
fill="#000000" stroke="none">
<path d="M45 4618 c-47 -25 -45 53 -45 -1670 l0 -1629 25 -24 24 -25 781 0
780 0 0 -115 0 -115 -137 0 c-85 0 -158 -6 -189 -14 -176 -47 -306 -193 -335
-375 -13 -86 -2 -124 42 -146 43 -23 3096 -22 3139 0 89 46 40 274 -86 400
-102 103 -197 135 -396 135 l-138 0 0 115 0 115 780 0 781 0 24 25 25 24 0
1628 c-1 1264 -3 1632 -13 1644 -7 9 -22 21 -34 27 -16 9 -540 12 -2103 12
-2283 0 -2123 4 -2150 -59 -15 -37 -7 -74 22 -101 22 -20 26 -20 2060 -20
l2038 0 0 -1500 0 -1500 -2380 0 -2380 0 0 1500 0 1500 253 0 c252 0 254 0
275 23 15 16 22 36 22 63 -1 42 -13 64 -47 82 -29 16 -609 16 -638 0z m3285
-3463 l0 -115 -770 0 -770 0 0 115 0 115 770 0 770 0 0 -115z m483 -315 c57
-22 120 -77 149 -132 l18 -33 -710 -3 c-390 -1 -1030 -1 -1420 0 l-710 3 17
33 c35 65 104 122 173 143 14 4 566 8 1227 8 1181 1 1203 1 1256 -19z"/>
<path d="M355 4265 l-25 -24 0 -1295 0 -1294 31 -26 31 -26 2168 0 2168 0 31
26 31 26 0 343 0 343 -32 27 c-26 22 -39 26 -67 21 -21 -3 -45 -16 -58 -31
-23 -26 -23 -30 -23 -301 l0 -274 -2050 0 -2050 0 0 1165 0 1165 2050 0 2050
0 0 -786 0 -786 29 -29 c37 -37 79 -38 120 -3 l31 26 0 854 0 855 -25 24 -24
25 -2181 0 -2181 0 -24 -25z"/>
<path d="M1409 3681 c-38 -38 -40 -91 -4 -126 24 -25 26 -25 215 -25 l190 0 0
-645 0 -646 25 -24 c27 -28 88 -34 116 -12 39 29 39 38 39 691 l0 636 180 0
c179 0 181 0 205 25 38 37 35 95 -6 129 l-31 26 -450 0 -450 0 -29 -29z"/>
<path d="M2609 3695 c-33 -18 -51 -64 -40 -103 5 -16 30 -87 56 -158 56 -153
77 -179 139 -171 51 7 76 36 76 87 0 42 -99 313 -122 337 -22 21 -79 25 -109
8z"/>
<path d="M3592 3683 c-20 -21 -79 -168 -232 -580 -113 -304 -207 -549 -211
-545 -3 4 -45 115 -94 247 -149 406 -144 394 -175 410 -41 21 -75 19 -107 -9
-21 -19 -27 -32 -27 -62 1 -61 317 -903 350 -931 31 -28 83 -30 113 -5 25 20
531 1368 531 1415 0 18 -11 39 -29 58 -39 38 -83 39 -119 2z"/>
</g>
</svg>
