<svg xmlns="http://www.w3.org/2000/svg" width="1024" height="1024" viewBox="0 0 1024 1024" version="1.1"><path d="M 346.015 480.083 C 346.023 480.313, 347.176 484.100, 348.577 488.500 C 353.797 504.895, 356.976 515.530, 356.949 516.500 C 356.897 518.331, 353.001 509.677, 352.930 507.571 C 352.861 505.532, 352.847 505.531, 352.049 507.500 C 351.507 508.839, 351.748 510.081, 352.780 511.256 C 353.628 512.222, 353.962 513.347, 353.524 513.756 C 353.085 514.165, 352.525 513.938, 352.280 513.250 C 352.034 512.563, 351.061 512, 350.117 512 C 349.172 512, 347.804 512.563, 347.075 513.250 C 346.015 514.250, 345.658 514.249, 345.290 513.244 C 345.036 512.553, 344.348 512.285, 343.760 512.648 C 343.127 513.039, 342.983 512.837, 343.406 512.151 C 343.889 511.370, 343.370 511.117, 341.811 511.371 C 340.540 511.579, 338.851 511.243, 338.058 510.624 C 337.199 509.954, 336.869 509.923, 337.242 510.548 C 337.586 511.124, 337.455 512.249, 336.949 513.048 C 336.191 514.246, 336.028 514.188, 336.015 512.715 C 336.003 511.296, 335.625 511.131, 334.170 511.909 C 332.893 512.593, 331.537 512.473, 329.687 511.512 C 327.238 510.242, 324.810 511.144, 326.400 512.733 C 326.730 513.063, 327 512.753, 327 512.044 C 327 511.012, 327.299 511.003, 328.500 512 C 330.309 513.501, 330.517 515.442, 328.750 514.335 C 326.368 512.844, 324.491 513.514, 322.689 516.500 C 321.692 518.150, 321.177 518.600, 321.542 517.500 C 323.960 510.230, 328.478 497.784, 330.551 492.682 C 332.955 486.766, 333.796 483.039, 332.057 486.005 C 331.572 486.833, 328.255 495.158, 324.687 504.505 C 321.119 513.852, 317.636 522.850, 316.946 524.500 C 316.257 526.150, 315.582 527.950, 315.446 528.500 C 315.310 529.050, 314.629 530.850, 313.933 532.500 C 313.237 534.150, 312.614 535.725, 312.548 536 C 312.483 536.275, 311.927 537.400, 311.313 538.500 C 310.699 539.600, 310.099 540.950, 309.979 541.500 C 309.859 542.050, 309.324 543.625, 308.791 545 C 308.258 546.375, 307.654 548.333, 307.449 549.352 C 307.244 550.371, 306.617 551.756, 306.058 552.431 C 305.498 553.105, 304.872 554.522, 304.666 555.578 C 304.460 556.635, 303.615 559.075, 302.788 561 C 301.961 562.925, 298.672 571.250, 295.479 579.500 C 292.287 587.750, 283.956 608.900, 276.966 626.500 C 269.976 644.100, 262.653 662.550, 260.693 667.500 L 257.129 676.500 257.569 669.500 C 257.811 665.650, 258.699 651.025, 259.544 637 C 260.388 622.975, 262.194 597.775, 263.557 581 C 264.920 564.225, 266.231 547.575, 266.470 544 C 266.709 540.425, 267.161 533.675, 267.475 529 C 267.788 524.325, 268.481 516.675, 269.014 512 C 269.547 507.325, 269.936 501.700, 269.878 499.500 C 269.819 497.300, 268.735 504.050, 267.467 514.500 C 266.190 525.033, 265.233 530.524, 265.321 526.823 C 265.408 523.150, 265.074 519.775, 264.579 519.323 C 264.053 518.842, 264.018 519.084, 264.494 519.905 C 265.060 520.879, 264.935 521.078, 264.086 520.553 C 263.414 520.138, 263.068 519.265, 263.318 518.613 C 263.568 517.962, 262.949 517.429, 261.942 517.429 C 260.563 517.429, 260.374 517.746, 261.178 518.714 C 262.693 520.540, 260.039 520.416, 257.354 518.535 C 256.204 517.730, 254.979 517.355, 254.631 517.702 C 254.284 518.049, 254 517.867, 254 517.298 C 254 516.322, 249.014 516.432, 246.250 517.469 C 245.563 517.726, 245 517.539, 245 517.052 C 245 516.565, 245.563 515.940, 246.250 515.662 C 246.938 515.385, 246.635 515.122, 245.579 515.079 C 244.522 515.036, 242.730 515.788, 241.596 516.750 C 240.322 517.831, 239.973 517.927, 240.682 517 C 241.627 515.763, 241.378 515.473, 239.261 515.346 C 237.411 515.235, 237.086 515.441, 238.097 516.081 C 239.421 516.919, 238.605 517.447, 236.581 517.062 C 236.075 516.966, 236.163 517.491, 236.776 518.230 C 237.657 519.291, 237.337 519.619, 235.251 519.791 C 233.800 519.911, 232.256 520.570, 231.821 521.255 C 231.197 522.238, 231.027 522.230, 231.015 521.218 C 231.007 520.513, 232.012 519.529, 233.250 519.031 C 234.773 518.419, 234.974 518.106, 233.872 518.063 C 231.584 517.974, 229.666 520.614, 230.288 522.995 C 230.577 524.098, 230.436 525, 229.976 525 C 229.516 525, 228.930 526.013, 228.674 527.250 C 228.177 529.652, 228.957 515.030, 229.527 511.256 C 229.713 510.021, 230.103 504.171, 230.394 498.256 C 230.734 491.334, 230.095 495.520, 228.600 510 C 227.323 522.375, 225.778 536.325, 225.166 541 C 223.799 551.454, 222.446 569.537, 220.487 603.500 C 216.608 670.759, 215.828 726.337, 218.572 739.792 C 220.744 750.441, 225.408 758.718, 231.293 762.368 C 240.911 768.334, 250.305 766.648, 260.253 757.170 C 275.995 742.173, 290.738 710.045, 325.492 615 C 330.822 600.425, 336.208 585.800, 337.461 582.500 C 338.714 579.200, 340.542 574.025, 341.522 571 C 342.502 567.975, 343.959 563.980, 344.759 562.123 C 345.559 560.266, 346.357 558.016, 346.531 557.123 C 346.705 556.230, 346.915 555.500, 346.998 555.500 C 347.081 555.500, 347.352 554.395, 347.600 553.043 C 347.848 551.692, 348.602 550.237, 349.275 549.809 C 349.949 549.381, 350.107 549.024, 349.628 549.015 C 349.148 549.007, 349.315 548.325, 350 547.500 C 350.685 546.675, 350.910 546, 350.500 546 C 350.090 546, 350.315 545.325, 351 544.500 C 351.685 543.675, 351.910 543, 351.500 543 C 351.090 543, 351.315 542.325, 352 541.500 C 352.685 540.675, 352.976 540, 352.648 540 C 352.143 540, 354.730 532.419, 358.829 521.887 C 359.676 519.713, 358.779 516.047, 353.485 500.033 C 348.096 483.732, 345.939 477.970, 346.015 480.083 M 688.498 482 C 688.908 483.375, 690.721 488.325, 692.526 493 C 697.437 505.718, 697.397 505.375, 694.383 508.956 C 692.518 511.173, 691.476 511.771, 690.953 510.924 C 690.497 510.185, 689.476 510.004, 688.351 510.462 C 686.586 511.180, 686.593 511.253, 688.500 512.037 C 690.345 512.796, 690.306 513.006, 688.250 513.390 C 687.837 513.467, 686.861 513.935, 686.080 514.429 C 685.014 515.104, 684.814 514.926, 685.279 513.715 C 685.701 512.615, 685.464 512.269, 684.532 512.626 C 682.661 513.344, 677.367 510.510, 678.857 509.588 C 679.486 509.200, 680 509.310, 680 509.834 C 680 510.358, 680.777 511.084, 681.726 511.449 C 682.989 511.933, 682.787 511.357, 680.976 509.306 C 679.614 507.762, 678.316 506.275, 678.091 506 C 677.866 505.725, 677.983 506.338, 678.352 507.361 C 678.855 508.757, 678.644 509.078, 677.511 508.643 C 675.695 507.946, 675.631 508.439, 677.164 511.316 C 678.221 513.301, 678.173 513.373, 676.640 512.107 C 675.711 511.342, 674.670 510.997, 674.325 511.342 C 673.980 511.687, 673.105 511.188, 672.381 510.234 C 671.194 508.672, 671.060 508.663, 671.032 510.143 C 671.014 511.047, 670.325 512.045, 669.500 512.362 C 668.675 512.678, 668 512.812, 668 512.659 C 668 512.506, 669.825 506.845, 672.055 500.078 C 674.285 493.312, 675.906 487.573, 675.658 487.325 C 675.410 487.077, 673.741 491.290, 671.949 496.687 C 670.156 502.084, 667.661 509.351, 666.403 512.837 C 664.714 517.514, 664.356 519.805, 665.033 521.587 C 665.538 522.914, 665.682 524, 665.353 524 C 665.024 524, 665.256 524.604, 665.869 525.342 C 666.481 526.080, 666.687 526.980, 666.325 527.342 C 665.963 527.704, 666.156 528, 666.754 528 C 667.352 528, 668.189 529.462, 668.614 531.250 C 669.039 533.038, 669.469 534.837, 669.569 535.250 C 669.668 535.663, 669.841 536.112, 669.952 536.250 C 670.062 536.388, 670.313 537.175, 670.508 538 C 671.643 542.787, 687.434 586.583, 700.975 622.500 C 724.369 684.547, 742.286 725.001, 755.394 745.371 C 763.601 758.125, 773.770 765.997, 782 765.968 C 789.786 765.941, 798.180 759.411, 802.058 750.365 C 807.095 738.615, 808.297 710.241, 806.015 657 C 804.383 618.944, 801.511 571.821, 800.345 564 C 799.977 561.525, 799.564 557.700, 799.428 555.500 C 798.663 543.066, 797.814 532.131, 797.410 529.500 C 796.496 523.555, 794.172 503.333, 793.502 495.500 C 793.126 491.100, 792.634 487.312, 792.409 487.083 C 791.725 486.387, 791.933 490.170, 793.563 508.065 C 794.423 517.504, 794.893 525.837, 794.607 526.582 C 794.321 527.327, 794.518 528.202, 795.044 528.527 C 795.570 528.852, 795.933 530.779, 795.850 532.809 C 795.715 536.133, 795.661 536.202, 795.307 533.500 C 795.091 531.850, 794.651 529.825, 794.329 529 C 794.007 528.175, 793.689 526.150, 793.622 524.500 C 793.512 521.785, 793.193 521.511, 790.272 521.619 C 788.492 521.684, 787.304 521.317, 787.623 520.801 C 787.942 520.285, 788.787 520.088, 789.503 520.363 C 790.221 520.638, 791.029 519.997, 791.308 518.931 C 791.949 516.481, 791.444 516.506, 788.164 519.086 L 785.512 521.171 784.253 518.086 C 783.014 515.048, 781.517 513.578, 782.638 516.500 C 783.035 517.532, 782.576 518, 781.166 518 C 780.040 518, 778.840 518.450, 778.500 519 C 777.284 520.967, 775.774 519.962, 776.245 517.500 C 776.508 516.125, 776.309 515, 775.802 515 C 775.296 515, 775.167 514.438, 775.515 513.750 C 775.863 513.063, 775.412 513.400, 774.512 514.500 C 772.998 516.351, 772.783 516.375, 771.631 514.822 C 770.261 512.977, 768.707 513.543, 767.708 516.250 C 767.281 517.409, 766 518, 763.915 518 C 761.259 518, 760.849 517.687, 761.290 516 C 761.577 514.900, 761.457 514, 761.023 514 C 759.933 514, 758.918 517.568, 758.320 523.500 C 758.043 526.250, 757.718 528.602, 757.599 528.726 C 757.480 528.850, 756.299 518.950, 754.974 506.726 C 753.650 494.502, 752.410 485.268, 752.218 486.207 C 752.026 487.146, 752.508 494.796, 753.288 503.207 C 754.068 511.618, 754.759 519.625, 754.822 521 C 754.886 522.375, 755.170 525.750, 755.453 528.500 C 755.736 531.250, 756.189 537.454, 756.461 542.286 C 756.732 547.119, 757.620 558.369, 758.435 567.286 C 760.444 589.271, 761.767 607.730, 763.504 638 C 765.192 667.408, 765.294 674.475, 763.985 671.500 C 761.928 666.824, 735.846 600.317, 726.336 575.500 C 720.646 560.650, 715.543 547.719, 714.995 546.764 C 714.448 545.809, 714 544.552, 714 543.972 C 714 543.391, 712.588 539.898, 710.862 536.208 C 709.136 532.519, 704.908 522.075, 701.467 513 C 693.918 493.091, 688.949 480.676, 688.261 480 C 687.981 479.725, 688.087 480.625, 688.498 482 M 422 486.200 C 422 486.493, 424.278 493.416, 427.062 501.584 C 431.519 514.659, 431.939 516.571, 430.578 517.567 C 429.727 518.189, 429.338 519.005, 429.713 519.380 C 430.088 519.755, 428.987 519.955, 427.267 519.824 C 425.546 519.692, 424.340 519.259, 424.586 518.861 C 425.097 518.034, 420.859 514.808, 420.168 515.499 C 419.919 515.748, 420.189 516.525, 420.769 517.226 C 421.578 518.203, 421.167 518.524, 419.005 518.602 C 416.571 518.690, 416.244 518.382, 416.613 516.352 C 416.847 515.058, 416.554 514, 415.961 514 C 415.367 514, 415.160 514.450, 415.500 515 C 416.373 516.413, 414.673 516.243, 412.998 514.750 C 411.803 513.684, 411.795 513.762, 412.941 515.274 C 414.525 517.366, 414.076 518.022, 410.818 518.369 C 409.497 518.510, 407.825 518.990, 407.104 519.436 C 406.368 519.890, 406.607 519.001, 407.646 517.412 C 408.887 515.515, 409.030 514.867, 408.080 515.453 C 407.043 516.092, 406.815 515.925, 407.235 514.831 C 407.554 513.999, 407.260 513.333, 406.575 513.333 C 405.822 513.333, 405.515 514.242, 405.787 515.667 C 406.232 517.994, 404.674 518.900, 403.498 516.997 C 403.104 516.359, 402.244 516.334, 401.135 516.928 C 400.143 517.459, 398.792 517.490, 398 517 C 397.200 516.505, 395.832 516.555, 394.783 517.116 C 393.780 517.653, 392.583 517.860, 392.124 517.577 C 391.665 517.293, 391.510 518.284, 391.781 519.780 C 392.750 525.131, 390.962 521.143, 385.578 505.940 C 382.571 497.448, 380.085 490.995, 380.055 491.600 C 380.025 492.205, 382.665 500.643, 385.922 510.350 C 389.179 520.058, 391.644 528, 391.399 528 C 391.154 528, 391.627 529.028, 392.450 530.284 C 393.273 531.540, 394.093 533.452, 394.272 534.534 C 394.451 535.615, 395.138 537.483, 395.799 538.684 C 396.460 539.886, 397 541.761, 397 542.851 C 397 543.941, 397.424 544.983, 397.941 545.167 C 398.459 545.350, 399.085 546.632, 399.333 548.016 C 399.580 549.400, 402.765 557.301, 406.410 565.573 C 420.443 597.420, 437.483 624.197, 455.824 643.223 C 476.047 664.201, 492.580 671.818, 515.500 670.717 C 523.384 670.339, 527.090 669.619, 533.010 667.319 C 549.813 660.789, 566.435 646.167, 585.338 621.288 C 596.153 607.055, 611.411 580.527, 618.865 563 C 620.152 559.975, 621.852 556.274, 622.644 554.775 C 623.436 553.276, 624.135 551.701, 624.197 551.275 C 624.260 550.849, 624.916 549.052, 625.655 547.282 C 626.395 545.512, 627 543.697, 627 543.247 C 627 542.798, 629.295 536.146, 632.100 528.465 C 637.838 512.754, 643.209 495.876, 642.650 495.317 C 642.446 495.113, 640.379 500.696, 638.055 507.723 C 633.494 521.520, 629.571 530.966, 630.672 525.500 C 631.004 523.850, 631.719 521.938, 632.260 521.250 C 632.920 520.413, 632.846 519.519, 632.036 518.544 C 631.372 517.743, 631.099 516.649, 631.430 516.113 C 631.762 515.577, 631.615 514.880, 631.104 514.564 C 630.593 514.248, 630.293 515.068, 630.438 516.385 C 630.760 519.319, 628.584 519.279, 626.506 516.312 C 625.711 515.178, 624.122 514.004, 622.973 513.703 C 621.314 513.269, 621.114 513.432, 621.999 514.498 C 622.868 515.545, 622.716 515.764, 621.306 515.496 C 620.313 515.307, 619.275 515.062, 619 514.950 C 618.725 514.839, 617.600 514.647, 616.500 514.525 C 615.400 514.402, 613.911 514.234, 613.191 514.151 C 612.471 514.068, 612.160 513.550, 612.500 513 C 612.840 512.450, 612.679 512, 612.142 512 C 611.606 512, 611.017 512.407, 610.833 512.905 C 610.650 513.403, 609.150 513.964, 607.500 514.152 C 605.850 514.339, 604.133 514.944, 603.684 515.496 C 603.236 516.048, 603.154 515.487, 603.502 514.250 C 603.874 512.927, 603.695 512, 603.067 512 C 602.480 512, 602 512.498, 602 513.107 C 602 513.716, 601.302 513.946, 600.448 513.618 C 599.558 513.277, 599.157 513.445, 599.507 514.011 C 600.087 514.949, 599.653 515.168, 596.750 515.400 C 596.063 515.455, 594.906 516.400, 594.181 517.500 L 592.862 519.500 593.541 517.500 C 601.348 494.523, 603.916 486.583, 603.633 486.300 C 603.444 486.111, 601.820 490.128, 600.024 495.228 C 594.833 509.967, 588.820 525.416, 587.872 526.450 C 587.392 526.973, 587 527.998, 587 528.728 C 587 529.459, 585.458 533.307, 583.573 537.278 C 581.688 541.250, 580.089 544.825, 580.019 545.222 C 579.949 545.619, 577.884 549.781, 575.430 554.472 C 572.976 559.162, 571.313 563.007, 571.734 563.015 C 572.155 563.024, 572.034 563.361, 571.464 563.765 C 570.895 564.169, 567.374 570.108, 563.641 576.963 C 550.462 601.158, 534.369 620.843, 523.500 626.062 C 516.535 629.406, 507.367 629.408, 500.500 626.068 C 491.509 621.694, 478.882 607.519, 467.917 589.492 C 464.518 583.903, 449.015 554.032, 448.460 552 C 448.384 551.725, 447.072 548.800, 445.544 545.500 C 441.905 537.641, 432.917 514.708, 427.331 499.028 C 423.333 487.804, 422 484.596, 422 486.200 M 696.586 507.750 C 696.190 508.988, 695.419 510, 694.874 510 C 694.328 510, 694.136 510.412, 694.447 510.915 C 694.758 511.418, 694.447 512.057, 693.756 512.336 C 692.874 512.691, 692.947 512.890, 694 513.004 C 694.825 513.094, 696.513 513.279, 697.750 513.416 C 700.303 513.699, 700.296 513.736, 698.578 509 C 697.394 505.739, 697.258 505.653, 696.586 507.750 M 431.996 517 C 431.360 518.957, 431.486 522, 432.203 522 C 432.680 522, 433.939 524.025, 435 526.500 C 436.061 528.975, 437.136 531, 437.390 531 C 437.778 531, 436.679 527.923, 432.714 517.904 C 432.408 517.132, 432.085 516.725, 431.996 517" stroke="none" fill="#d5f4fb" fill-rule="evenodd"/><path d="M 495.500 215.954 C 476.507 220.959, 463.840 229.599, 448.522 248 C 430.457 269.701, 406.615 311.450, 388.987 352.250 C 387.145 356.512, 385.306 360, 384.899 360 C 384.492 360, 383.844 358.538, 383.460 356.750 C 382.131 350.573, 359.881 284.028, 354.919 271.392 C 342.890 240.757, 331.454 225.104, 317.578 220.281 C 309.554 217.493, 297.922 217.912, 290.704 221.251 C 275.641 228.217, 264.041 247.039, 258.194 274 C 250.620 308.922, 238.387 398.032, 231.031 471.882 C 229.083 491.430, 228.401 506.746, 230.046 494 C 230.500 490.478, 230.595 492.188, 230.310 498.756 C 230.066 504.396, 229.713 510.021, 229.527 511.256 C 228.957 515.030, 228.177 529.652, 228.674 527.250 C 228.930 526.013, 229.516 525, 229.976 525 C 230.436 525, 230.577 524.098, 230.288 522.995 C 229.666 520.614, 231.584 517.974, 233.872 518.063 C 234.974 518.106, 234.773 518.419, 233.250 519.031 C 232.012 519.529, 231.007 520.513, 231.015 521.218 C 231.027 522.230, 231.197 522.238, 231.821 521.255 C 232.256 520.570, 233.800 519.911, 235.251 519.791 C 237.337 519.619, 237.657 519.291, 236.776 518.230 C 236.163 517.491, 236.075 516.966, 236.581 517.062 C 238.605 517.447, 239.421 516.919, 238.097 516.081 C 237.086 515.441, 237.411 515.235, 239.261 515.346 C 241.378 515.473, 241.627 515.763, 240.682 517 C 239.973 517.927, 240.322 517.831, 241.596 516.750 C 242.730 515.788, 244.522 515.036, 245.579 515.079 C 246.635 515.122, 246.938 515.385, 246.250 515.662 C 245.563 515.940, 245 516.565, 245 517.052 C 245 517.539, 245.563 517.726, 246.250 517.469 C 249.014 516.432, 254 516.322, 254 517.298 C 254 517.867, 254.284 518.049, 254.631 517.702 C 254.979 517.355, 256.204 517.730, 257.354 518.535 C 260.039 520.416, 262.693 520.540, 261.178 518.714 C 260.374 517.746, 260.563 517.429, 261.942 517.429 C 262.949 517.429, 263.568 517.962, 263.318 518.613 C 263.068 519.265, 263.414 520.138, 264.086 520.553 C 264.935 521.078, 265.060 520.879, 264.494 519.905 C 264.018 519.084, 264.053 518.842, 264.579 519.323 C 265.074 519.775, 265.408 523.150, 265.321 526.823 C 265.233 530.524, 266.190 525.033, 267.467 514.500 C 269.077 501.229, 269.837 497.158, 269.990 501 C 270.127 504.452, 271.107 498.306, 272.620 484.500 C 282.020 398.733, 294.060 312.627, 301.144 280.500 C 302.842 272.800, 304.473 265.403, 304.768 264.061 C 305.543 260.542, 310.381 273.366, 327.003 323 C 341.034 364.901, 347.126 384.496, 361.977 435.500 C 372.756 472.522, 383.335 506.496, 383.721 505.336 C 383.892 504.824, 383.125 501.768, 382.016 498.546 C 380.907 495.323, 380.025 492.195, 380.055 491.593 C 380.085 490.992, 382.571 497.448, 385.578 505.940 C 390.962 521.143, 392.750 525.131, 391.781 519.780 C 391.510 518.284, 391.665 517.293, 392.124 517.577 C 392.583 517.860, 393.780 517.653, 394.783 517.116 C 395.832 516.555, 397.200 516.505, 398 517 C 398.792 517.490, 400.143 517.459, 401.135 516.928 C 402.244 516.334, 403.104 516.359, 403.498 516.997 C 404.674 518.900, 406.232 517.994, 405.787 515.667 C 405.515 514.242, 405.822 513.333, 406.575 513.333 C 407.260 513.333, 407.554 513.999, 407.235 514.831 C 406.815 515.925, 407.043 516.092, 408.080 515.453 C 409.030 514.867, 408.887 515.515, 407.646 517.412 C 406.607 519.001, 406.368 519.890, 407.104 519.436 C 407.825 518.990, 409.497 518.510, 410.818 518.369 C 414.076 518.022, 414.525 517.366, 412.941 515.274 C 411.795 513.762, 411.803 513.684, 412.998 514.750 C 414.673 516.243, 416.373 516.413, 415.500 515 C 415.160 514.450, 415.367 514, 415.961 514 C 416.554 514, 416.847 515.058, 416.613 516.352 C 416.244 518.382, 416.571 518.690, 419.005 518.602 C 421.167 518.524, 421.578 518.203, 420.769 517.226 C 420.189 516.525, 419.919 515.748, 420.168 515.499 C 420.859 514.808, 425.097 518.034, 424.586 518.861 C 424.340 519.259, 425.546 519.692, 427.267 519.824 C 428.987 519.955, 430.088 519.755, 429.713 519.380 C 429.338 519.005, 429.727 518.189, 430.578 517.567 C 431.939 516.571, 431.518 514.656, 427.054 501.560 C 424.265 493.378, 422.165 486.501, 422.388 486.278 C 422.611 486.055, 424.011 489.530, 425.500 494 C 426.989 498.470, 428.378 501.955, 428.587 501.746 C 428.797 501.536, 426.125 492.848, 422.649 482.438 C 418.927 471.290, 416.060 464.124, 415.674 465.005 C 415.312 465.831, 415.237 465.590, 415.508 464.467 C 415.777 463.348, 413.753 455.473, 411.010 446.967 C 408.266 438.460, 406.017 430.643, 406.011 429.595 C 405.986 425.309, 431.784 364.705, 446.278 335 C 461.959 302.860, 474.791 282.417, 486.494 270.930 C 493.983 263.579, 497.853 261.133, 504.950 259.266 C 529.463 252.820, 552.284 279.416, 589.437 357.724 C 602.682 385.643, 620.389 426.754, 620.235 429.231 C 620.176 430.183, 617.827 437.974, 615.017 446.545 C 612.097 455.449, 610.137 463.066, 610.444 464.315 C 610.740 465.517, 610.687 465.827, 610.326 465.005 C 609.938 464.122, 607.290 470.638, 603.851 480.938 C 600.650 490.522, 598.203 498.536, 598.413 498.746 C 598.623 498.956, 599.787 496.145, 601 492.500 C 602.213 488.855, 603.379 486.046, 603.591 486.258 C 603.910 486.576, 601.446 494.234, 593.541 517.500 L 592.862 519.500 594.181 517.500 C 594.906 516.400, 596.063 515.455, 596.750 515.400 C 599.653 515.168, 600.087 514.949, 599.507 514.011 C 599.157 513.445, 599.558 513.277, 600.448 513.618 C 601.302 513.946, 602 513.716, 602 513.107 C 602 512.498, 602.480 512, 603.067 512 C 603.695 512, 603.874 512.927, 603.502 514.250 C 603.154 515.487, 603.236 516.048, 603.684 515.496 C 604.133 514.944, 605.850 514.339, 607.500 514.152 C 609.150 513.964, 610.650 513.403, 610.833 512.905 C 611.017 512.407, 611.606 512, 612.142 512 C 612.679 512, 612.840 512.450, 612.500 513 C 612.160 513.550, 612.471 514.068, 613.191 514.151 C 613.911 514.234, 615.400 514.402, 616.500 514.525 C 617.600 514.647, 618.725 514.839, 619 514.950 C 619.275 515.062, 620.313 515.307, 621.306 515.496 C 622.716 515.764, 622.868 515.545, 621.999 514.498 C 621.114 513.432, 621.314 513.269, 622.973 513.703 C 624.122 514.004, 625.711 515.178, 626.506 516.312 C 628.584 519.279, 630.760 519.319, 630.438 516.385 C 630.293 515.068, 630.593 514.248, 631.104 514.564 C 631.615 514.880, 631.762 515.577, 631.430 516.113 C 631.099 516.649, 631.372 517.743, 632.036 518.544 C 632.846 519.519, 632.920 520.413, 632.260 521.250 C 631.719 521.938, 631.004 523.850, 630.672 525.500 C 629.571 530.966, 633.494 521.520, 638.055 507.723 C 640.379 500.696, 642.456 495.122, 642.671 495.337 C 642.886 495.553, 641.929 499.277, 640.544 503.614 C 638.038 511.460, 637.215 515.768, 639.132 511 C 640.371 507.917, 653.775 464.522, 661.833 437.500 C 688.970 346.509, 716.645 260.574, 718.002 263.091 C 718.420 263.866, 719.702 268.550, 720.851 273.500 C 729.553 310.995, 740.007 383.703, 749.176 470.500 C 750.699 484.913, 751.675 491.121, 752.008 488.500 C 752.345 485.851, 753.338 492.006, 754.949 506.726 C 756.287 518.950, 757.480 528.850, 757.599 528.726 C 757.718 528.602, 758.043 526.250, 758.320 523.500 C 758.918 517.568, 759.933 514, 761.023 514 C 761.457 514, 761.577 514.900, 761.290 516 C 760.849 517.687, 761.259 518, 763.915 518 C 766 518, 767.281 517.409, 767.708 516.250 C 768.707 513.543, 770.261 512.977, 771.631 514.822 C 772.783 516.375, 772.998 516.351, 774.512 514.500 C 775.412 513.400, 775.863 513.063, 775.515 513.750 C 775.167 514.438, 775.296 515, 775.802 515 C 776.309 515, 776.508 516.125, 776.245 517.500 C 775.774 519.962, 777.284 520.967, 778.500 519 C 778.840 518.450, 780.040 518, 781.166 518 C 782.576 518, 783.035 517.532, 782.638 516.500 C 781.517 513.578, 783.014 515.048, 784.253 518.086 L 785.512 521.171 788.164 519.086 C 791.444 516.506, 791.949 516.481, 791.308 518.931 C 791.029 519.997, 790.221 520.638, 789.503 520.363 C 788.787 520.088, 787.942 520.285, 787.623 520.801 C 787.304 521.317, 788.492 521.684, 790.272 521.619 C 793.193 521.511, 793.512 521.785, 793.622 524.500 C 793.689 526.150, 794.007 528.175, 794.329 529 C 794.651 529.825, 795.091 531.850, 795.307 533.500 C 795.661 536.202, 795.715 536.133, 795.850 532.809 C 795.933 530.779, 795.543 528.835, 794.984 528.490 C 794.425 528.144, 794.234 527.431, 794.559 526.904 C 794.885 526.377, 794.393 517.382, 793.467 506.915 C 792.540 496.449, 792.056 487.611, 792.391 487.276 C 792.726 486.941, 793.052 488.429, 793.116 490.583 C 793.180 492.738, 793.435 493.727, 793.683 492.781 C 794.889 488.190, 779.881 358.152, 772.986 313.452 C 764.898 261.012, 758.411 242.003, 744.078 228.732 C 736.164 221.405, 729.257 218.674, 718.500 218.617 C 707.492 218.558, 700.473 221.769, 691.730 230.861 C 677.270 245.897, 667.378 270.096, 642.420 351.477 L 638.747 363.454 636.908 358.772 C 633.369 349.763, 616.313 315.360, 607.523 299.500 C 586.937 262.358, 568.645 238.638, 551.687 227.094 C 535.223 215.885, 512.705 211.421, 495.500 215.954 M 335.755 473.213 C 329.725 489.421, 329.528 490.045, 331.395 487 C 333.701 483.242, 333.306 485.903, 330.551 492.682 C 328.478 497.784, 323.960 510.230, 321.542 517.500 C 321.177 518.600, 321.692 518.150, 322.689 516.500 C 324.491 513.514, 326.368 512.844, 328.750 514.335 C 330.517 515.442, 330.309 513.501, 328.500 512 C 327.299 511.003, 327 511.012, 327 512.044 C 327 512.753, 326.730 513.063, 326.400 512.733 C 324.810 511.144, 327.238 510.242, 329.687 511.512 C 331.537 512.473, 332.893 512.593, 334.170 511.909 C 335.625 511.131, 336.003 511.296, 336.015 512.715 C 336.028 514.188, 336.191 514.246, 336.949 513.048 C 337.455 512.249, 337.586 511.124, 337.242 510.548 C 336.869 509.923, 337.199 509.954, 338.058 510.624 C 338.851 511.243, 340.540 511.579, 341.811 511.371 C 343.370 511.117, 343.889 511.370, 343.406 512.151 C 342.983 512.837, 343.127 513.039, 343.760 512.648 C 344.348 512.285, 345.036 512.553, 345.290 513.244 C 345.658 514.249, 346.015 514.250, 347.075 513.250 C 347.804 512.563, 349.173 512, 350.117 512 C 351.061 512, 352.034 512.563, 352.280 513.250 C 352.525 513.938, 353.085 514.165, 353.524 513.756 C 353.962 513.347, 353.628 512.222, 352.780 511.256 C 351.748 510.081, 351.507 508.839, 352.049 507.500 C 352.847 505.531, 352.861 505.532, 352.930 507.571 C 353.001 509.677, 356.897 518.331, 356.949 516.500 C 356.976 515.547, 354.093 505.887, 348.606 488.540 C 347.221 484.161, 346.250 480.416, 346.449 480.218 C 346.648 480.019, 348.985 486.431, 351.643 494.467 C 354.300 502.503, 356.602 508.694, 356.758 508.225 C 357.105 507.184, 342.159 462.817, 341.089 461.713 C 340.670 461.281, 338.269 466.456, 335.755 473.213 M 677.134 478.576 C 674.211 487.144, 672.013 494.346, 672.250 494.583 C 672.486 494.819, 673.233 493.166, 673.909 490.909 C 674.585 488.652, 675.357 487.024, 675.624 487.291 C 675.891 487.558, 674.285 493.312, 672.055 500.078 C 669.825 506.845, 668 512.506, 668 512.659 C 668 512.812, 668.675 512.678, 669.500 512.362 C 670.325 512.045, 671.014 511.047, 671.032 510.143 C 671.060 508.663, 671.194 508.672, 672.381 510.234 C 673.105 511.188, 673.980 511.687, 674.325 511.342 C 674.670 510.997, 675.711 511.342, 676.640 512.107 C 678.173 513.373, 678.221 513.301, 677.164 511.316 C 675.631 508.439, 675.695 507.946, 677.511 508.643 C 678.644 509.078, 678.855 508.757, 678.352 507.361 C 677.983 506.338, 677.866 505.725, 678.091 506 C 678.316 506.275, 679.614 507.762, 680.976 509.306 C 682.787 511.357, 682.989 511.933, 681.726 511.449 C 680.777 511.084, 680 510.358, 680 509.834 C 680 509.310, 679.486 509.200, 678.857 509.588 C 677.367 510.510, 682.661 513.344, 684.532 512.626 C 685.481 512.262, 685.704 512.621, 685.262 513.801 C 684.687 515.335, 684.805 515.354, 686.466 514 C 687.479 513.175, 688.463 512.612, 688.654 512.750 C 688.844 512.888, 689.337 512.968, 689.750 512.930 C 690.163 512.891, 689.600 512.489, 688.500 512.037 C 686.593 511.253, 686.586 511.180, 688.351 510.462 C 689.476 510.004, 690.497 510.185, 690.953 510.924 C 691.476 511.771, 692.518 511.173, 694.383 508.956 C 697.397 505.375, 697.437 505.718, 692.526 493 C 689.038 483.966, 686.983 477.098, 689.533 483 C 691.675 487.957, 694.089 492.712, 693.770 491.347 C 693.046 488.251, 683.432 463.015, 682.974 463.008 C 682.684 463.004, 680.056 470.009, 677.134 478.576 M 793.984 500.797 L 794.468 506.500 794.795 501.610 C 794.974 498.921, 794.756 496.355, 794.310 495.907 C 793.865 495.460, 793.718 497.660, 793.984 500.797 M 668.619 503.619 C 667.189 507.872, 666.190 511.524, 666.400 511.733 C 666.609 511.943, 667.951 508.634, 669.381 504.381 C 670.811 500.128, 671.810 496.476, 671.600 496.267 C 671.391 496.057, 670.049 499.366, 668.619 503.619 M 429 503.276 C 429 504.567, 434.279 518.054, 434.643 517.691 C 434.853 517.480, 433.857 514.201, 432.428 510.404 C 429.984 503.908, 429 501.862, 429 503.276 M 593.650 510.150 C 592.192 514.100, 591.165 517.499, 591.370 517.703 C 591.574 517.907, 592.937 514.846, 594.400 510.900 C 595.863 506.954, 596.889 503.555, 596.680 503.347 C 596.472 503.139, 595.108 506.200, 593.650 510.150 M 696.586 507.750 C 696.190 508.988, 695.419 510, 694.874 510 C 694.328 510, 694.136 510.412, 694.447 510.915 C 694.758 511.418, 694.447 512.057, 693.756 512.336 C 692.874 512.691, 692.947 512.890, 694 513.004 C 694.825 513.094, 696.513 513.279, 697.750 513.416 C 700.303 513.699, 700.296 513.736, 698.578 509 C 697.394 505.739, 697.258 505.653, 696.586 507.750 M 431.996 517 C 431.360 518.957, 431.486 522, 432.203 522 C 432.680 522, 433.939 524.025, 435 526.500 C 436.061 528.975, 437.136 531, 437.390 531 C 437.778 531, 436.679 527.923, 432.714 517.904 C 432.408 517.132, 432.085 516.725, 431.996 517" stroke="none" fill="#6ed7fb" fill-rule="evenodd"/></svg>