<?xml version="1.0" standalone="no"?>
<!DOCTYPE svg PUBLIC "-//W3C//DTD SVG 20010904//EN"
 "http://www.w3.org/TR/2001/REC-SVG-20010904/DTD/svg10.dtd">
<svg version="1.0" xmlns="http://www.w3.org/2000/svg"
 width="512.000000pt" height="512.000000pt" viewBox="0 0 512.000000 512.000000"
 preserveAspectRatio="xMidYMid meet">

<g transform="translate(0.000000,512.000000) scale(0.100000,-0.100000)"
fill="#000000" stroke="none">
<path d="M136 4725 c-49 -17 -93 -59 -117 -110 -18 -38 -19 -105 -19 -1675 0
-1560 1 -1637 19 -1675 23 -51 79 -101 128 -114 25 -7 361 -11 1006 -11 l967
0 0 -335 0 -335 -313 0 c-230 0 -316 -3 -325 -12 -18 -18 -14 -56 7 -68 13 -6
248 -10 694 -10 662 0 674 0 692 20 15 17 16 24 7 45 l-12 25 -330 0 -330 0 0
335 0 335 410 0 410 0 0 -348 c0 -378 0 -377 57 -401 21 -8 283 -11 1000 -9
l973 3 27 28 28 27 3 759 c1 475 -1 768 -7 784 -6 14 -22 34 -38 44 -25 17
-78 18 -824 23 l-798 5 752 235 c519 162 759 241 778 257 42 36 43 60 3 190
-20 65 -40 132 -46 150 -12 45 -52 90 -85 96 -19 3 -166 -38 -458 -130 -236
-74 -545 -171 -685 -214 -140 -44 -318 -100 -395 -124 -77 -24 -186 -58 -243
-76 -113 -35 -142 -58 -142 -113 0 -17 21 -96 47 -176 53 -164 50 -115 45
-642 l-2 -278 -1420 0 c-1561 0 -1462 -4 -1495 60 -12 23 -15 70 -15 235 l0
205 1384 0 c1245 0 1386 2 1400 16 19 18 21 45 4 62 -9 9 -334 12 -1400 12
l-1388 0 0 1120 0 1120 2470 0 2470 0 0 -538 c0 -405 3 -541 12 -550 17 -17
44 -15 62 4 14 14 16 101 16 808 l0 792 -25 50 c-26 52 -70 88 -126 104 -22 6
-900 10 -2414 10 -1995 -1 -2386 -3 -2419 -15z m4834 -90 c55 -28 60 -53 60
-280 l0 -205 -2470 0 -2470 0 0 205 c0 164 3 212 15 235 33 64 -162 59 2453
60 2111 0 2386 -2 2412 -15z m-84 -1885 c29 -94 38 -137 30 -141 -26 -14 -287
-90 -299 -87 -22 5 -357 182 -357 188 0 9 543 179 564 177 16 -2 28 -27 62
-137z m-593 -165 c89 -46 170 -90 180 -97 16 -12 -19 -25 -279 -106 l-297 -92
-176 91 c-97 50 -180 95 -185 99 -4 5 29 20 75 34 46 14 176 55 289 90 113 36
211 65 218 65 7 1 86 -37 175 -84z m-528 -334 c-2 -1 -149 -49 -327 -106 -236
-75 -326 -99 -334 -91 -11 11 -84 240 -84 263 0 7 65 32 148 58 81 25 165 52
187 59 l40 14 187 -97 c102 -53 185 -98 183 -100z m-130 -441 l-150 -150 -182
0 -183 0 0 144 c0 106 3 146 13 149 6 3 156 6 332 6 l320 1 -150 -150z m760 0
l-150 -150 -315 0 -315 0 150 150 150 150 315 0 315 0 -150 -150z m633 -2 l3
-148 -328 0 -328 0 150 150 150 150 175 -2 175 -3 3 -147z m-3 -788 l0 -545
-952 -3 -953 -2 0 550 0 549 953 -2 952 -2 0 -545z"/>
<path d="M2207 3549 c-45 -26 -47 -48 -47 -596 0 -497 1 -519 20 -550 20 -34
54 -48 94 -41 38 7 914 518 936 545 28 36 25 77 -7 112 -16 15 -229 144 -474
285 -449 258 -477 271 -522 245z m148 -133 c50 -30 244 -143 433 -252 188
-109 342 -201 342 -205 0 -3 -132 -82 -292 -174 -161 -93 -356 -206 -433 -252
-77 -46 -143 -83 -147 -83 -5 0 -8 230 -8 510 0 281 3 510 8 510 4 -1 48 -25
97 -54z"/>
</g>
</svg>
