<?xml version="1.0" encoding="UTF-8"?>
<svg version="1.1" xmlns="http://www.w3.org/2000/svg" width="512" height="512">
<path d="M0 0 C0.82229835 -0.00436032 1.6445967 -0.00872064 2.49181318 -0.0132131 C5.25315253 -0.02418015 8.0139937 -0.01374056 10.77532959 -0.00342751 C12.77263775 -0.00688349 14.769944 -0.01164765 16.76724625 -0.01760924 C22.26051993 -0.03015698 27.75363768 -0.02393166 33.246912 -0.01465058 C39.16927788 -0.00787589 45.09161654 -0.01833347 51.01397705 -0.02659035 C61.94684678 -0.03917448 72.87966282 -0.03806268 83.81253541 -0.02985594 C93.91215867 -0.02231182 104.01176366 -0.02033798 114.11138916 -0.02392387 C114.78109782 -0.02415303 115.45080647 -0.02438218 116.14080933 -0.02461828 C118.8593165 -0.02555229 121.57782367 -0.02650749 124.29633082 -0.02749758 C149.8024784 -0.03667635 175.30859423 -0.02835138 200.8147369 -0.01220688 C223.47967803 0.00203013 246.14456859 0.00075626 268.80950928 -0.01358986 C294.2687495 -0.02965077 319.72796168 -0.03602542 345.18720627 -0.02675307 C347.9007848 -0.0257909 350.61436335 -0.02485238 353.32794189 -0.02392387 C353.99610319 -0.02368664 354.66426448 -0.02344941 355.35267308 -0.02320499 C365.44640644 -0.01979134 375.54011954 -0.0237857 385.6338501 -0.03136253 C397.10989475 -0.03976678 408.58587782 -0.03752004 420.0619154 -0.0215203 C425.91980568 -0.01362312 431.77759321 -0.01057065 437.63548279 -0.02046776 C442.9944542 -0.02938515 448.35322728 -0.02453061 453.71218061 -0.0085351 C455.65421969 -0.00517475 457.59627541 -0.00690937 459.53830385 -0.01416247 C462.17221989 -0.02324755 464.80545112 -0.01396642 467.43933105 0 C468.19835708 -0.0070235 468.95738311 -0.014047 469.73940992 -0.02128333 C475.89748587 0.04425336 479.78110334 1.70945829 484.40716553 5.69002342 C488.68506647 10.66163803 490.09551929 14.75812727 490.08042908 21.28716087 C490.08299235 21.95790646 490.08555563 22.62865204 490.08819658 23.31972325 C490.09311464 25.55392018 490.07667523 27.78743235 490.0602417 30.02156639 C490.05939499 31.62834215 490.05987142 33.23511907 490.06156921 34.84189415 C490.0624289 39.19480795 490.04480744 43.54747304 490.02384734 47.90032911 C490.00507615 52.45270173 490.00332975 57.00508023 489.99977112 61.55748558 C489.99045196 70.17404551 489.96583991 78.79049106 489.93572265 87.40700066 C489.90217464 97.21830338 489.88569162 107.0296116 489.87063634 116.8409574 C489.83929025 137.01987655 489.78653224 157.19869277 489.71966553 177.37752342 C488.39966553 177.70752342 487.07966553 178.03752342 485.71966553 178.37752342 C485.78083671 190.43428571 485.85791415 202.49083082 485.95538044 214.54735756 C486.000135 220.14551674 486.03937996 225.74360228 486.06610107 231.34187889 C486.09208321 236.74310093 486.13244962 242.14404037 486.18285179 247.54508781 C486.19955496 249.60715028 486.2110477 251.66926167 486.21727943 253.73138237 C486.22688296 256.61666147 486.25489738 259.50121192 486.28729248 262.38631248 C486.28513985 263.66916885 486.28513985 263.66916885 486.28294373 264.97794151 C486.29548187 265.7659565 486.30802002 266.55397148 486.32093811 267.36586571 C486.32554708 268.04799252 486.33015604 268.73011932 486.33490467 269.43291664 C486.58905615 271.51077469 486.58905615 271.51077469 488.22035599 273.23251629 C490.26029992 276.1509892 490.09974826 278.16734592 490.10734558 281.70929527 C490.12220253 283.66299538 490.12220253 283.66299538 490.13735962 285.65616417 C490.13312157 287.09770869 490.12856371 288.5392523 490.12371826 289.98079491 C490.12942109 291.50035161 490.13638501 293.01990404 490.14451599 294.53944969 C490.16247259 298.66551169 490.16127433 302.79136131 490.15557361 306.91745067 C490.15248527 310.36186065 490.15857026 313.80622963 490.16461235 317.25063378 C490.17866426 325.37637967 490.17709085 333.50202044 490.16571045 341.62776756 C490.15422893 350.01096569 490.16830384 358.39384392 490.19510692 366.77699989 C490.21725788 373.97457427 490.22390267 381.17204819 490.21803051 388.36965424 C490.21465822 392.66843611 490.21709394 396.96701292 490.23428154 401.26576614 C490.24973902 405.30832002 490.2458088 409.35039974 490.22697639 413.3929348 C490.22328712 414.87600234 490.22640893 416.35910491 490.23686218 417.8421402 C490.25004833 419.86764687 490.2361312 421.89327582 490.22087097 423.91876793 C490.22066169 425.05198699 490.2204524 426.18520605 490.22023678 427.35276508 C489.60831905 431.05034709 488.30342365 432.71336125 485.71966553 435.37752342 C482.63158687 436.92156275 479.37834377 436.52181988 475.98922729 436.51796532 C474.77808236 436.522422 474.77808236 436.522422 473.54246986 436.52696872 C470.82173959 436.53567916 468.10105319 436.53716593 465.38031006 436.53865623 C463.43579005 436.54328272 461.49127096 436.54830715 459.54675293 436.5537014 C454.25338352 436.56684304 448.9600268 436.5732737 443.66664362 436.57771206 C440.36230325 436.58063972 437.05796639 436.58474392 433.75362778 436.58921623 C423.42303328 436.60289531 413.09244673 436.61256017 402.7618438 436.61641812 C390.82180691 436.62090117 378.88188436 436.6384588 366.94188225 436.66741872 C357.72232041 436.68900703 348.50279082 436.69912086 339.28320396 436.70045924 C333.77217397 436.70150924 328.26125141 436.7074585 322.75024796 436.72527885 C317.56777305 436.74171047 312.3854869 436.743939 307.2029953 436.73513985 C305.29862591 436.73436685 303.39424657 436.73874652 301.4899025 436.7485981 C298.89439808 436.76123999 296.29957003 436.7554834 293.70407104 436.7450161 C292.94667889 436.7530725 292.18928673 436.76112891 291.4089433 436.76942945 C287.11656794 436.72881438 284.94113052 436.18672847 281.71966553 433.37752342 C279.07063978 433.00835069 276.62407025 432.77783454 273.96966553 432.69002342 C273.27228271 432.65586327 272.5748999 432.62170311 271.85638428 432.5865078 C270.14469445 432.50444048 268.43220793 432.43929423 266.71966553 432.37752342 C266.05966553 433.69752342 265.39966553 435.01752342 264.71966553 436.37752342 C246.63086799 436.42419533 228.54208603 436.45948862 210.45324135 436.48114777 C202.05472428 436.49147072 193.65624456 436.50555046 185.25775146 436.52840233 C177.93964183 436.54830507 170.62155924 436.56123244 163.30342329 436.56570041 C159.42670111 436.56831309 155.55005634 436.57447504 151.67335892 436.58898354 C148.02743751 436.60251832 144.38162568 436.60675444 140.73568153 436.60373878 C138.7536492 436.60455478 136.77162891 436.61533783 134.78962708 436.62636375 C133.61731033 436.62361443 132.44499359 436.6208651 131.2371521 436.61803246 C129.70236678 436.62079783 129.70236678 436.62079783 128.1365757 436.62361908 C125.71966553 436.37752342 125.71966553 436.37752342 123.71966553 434.37752342 C123.34466553 431.94002342 123.34466553 431.94002342 123.71966553 429.37752342 C125.98122823 427.11661328 127.36176672 426.42307085 130.55444336 426.01675987 C131.64698425 426.02342171 132.73952515 426.03008354 133.86517334 426.03694725 C135.12345947 426.0373098 136.38174561 426.03767235 137.67816162 426.03804588 C138.99638916 426.05339378 140.3146167 426.06874168 141.67279053 426.08455467 C142.8875708 426.08757591 144.10235107 426.09059715 145.35394287 426.09370995 C149.89260349 426.10940829 154.43114302 426.1512922 158.96966553 426.19002342 C169.11716553 426.25189842 179.26466553 426.31377342 189.71966553 426.37752342 C189.71966553 404.59752342 189.71966553 382.81752342 189.71966553 360.37752342 C183.75307861 360.39323387 177.7864917 360.40894432 171.63909912 360.42513084 C151.95360087 360.47477907 132.2681002 360.50810605 112.58255577 360.53295994 C100.64401434 360.54843329 88.70553219 360.56953184 76.76702881 360.60384178 C66.36225935 360.63372971 55.95753282 360.65309501 45.55272162 360.65978891 C40.04270655 360.66370217 34.53281432 360.67290877 29.02283859 360.69471359 C23.83711243 360.71506907 18.65155975 360.72135908 13.46579742 360.71684647 C11.56226535 360.71767208 9.65872749 360.72364327 7.75522995 360.73513985 C5.1559529 360.75006925 2.55733058 360.74647543 -0.04196167 360.73828697 C-0.79489238 360.7470255 -1.5478231 360.75576402 -2.32356989 360.76476735 C-8.07934907 360.71576901 -12.13457591 359.37432689 -16.36236572 355.44002342 C-16.93342041 354.75939842 -17.5044751 354.07877342 -18.09283447 353.37752342 C-18.67677979 352.69689842 -19.2607251 352.01627342 -19.86236572 351.31502342 C-22.36876788 347.89029761 -22.40666285 344.94810206 -22.41176224 340.84017277 C-22.41560338 339.68141248 -22.41944453 338.5226522 -22.42340207 337.32877797 C-22.42210235 335.41033258 -22.42210235 335.41033258 -22.42077637 333.45313072 C-22.42335944 332.08538314 -22.42637244 330.71763631 -22.42977977 329.34989053 C-22.43785976 325.58292597 -22.43963989 321.81598045 -22.44037724 318.04900825 C-22.44222605 313.98959838 -22.44977249 309.93019844 -22.45651245 305.8707943 C-22.4701032 296.99068836 -22.47612159 288.11058693 -22.48052311 279.23047233 C-22.48328417 273.68767943 -22.48752126 268.14488828 -22.49202728 262.60209656 C-22.50422071 247.26130819 -22.51452001 231.92052123 -22.51790237 216.57972813 C-22.51812194 215.59759593 -22.51834151 214.61546373 -22.51856773 213.60356994 C-22.518786 212.61906427 -22.51900428 211.63455859 -22.51922917 210.62021941 C-22.51967264 208.62517687 -22.52011921 206.63013432 -22.52056885 204.63509178 C-22.52079028 203.64547804 -22.52101171 202.65586431 -22.52123985 201.63626228 C-22.52518878 185.59703327 -22.54264539 169.55784968 -22.56592837 153.51863822 C-22.58962953 137.05875183 -22.60210365 120.59888824 -22.60327029 104.1389845 C-22.60418773 94.89438264 -22.60995727 85.64983995 -22.6280899 76.40525436 C-22.6434742 68.53402162 -22.64862124 60.66286632 -22.6403518 52.79162141 C-22.63643941 48.77469532 -22.63740351 44.75792528 -22.65140915 40.7410183 C-22.66411282 37.06394224 -22.6629819 33.38714005 -22.65081844 29.71006457 C-22.64792503 27.74919854 -22.65982394 25.78832794 -22.6722405 23.82749909 C-22.62954284 16.26884007 -22.02528773 11.56760423 -16.96783447 5.69002342 C-11.59919922 1.07050007 -6.95623796 -0.06436818 0 0 Z " fill="#FEFEFE" transform="translate(22.28033447265625,37.62247657775879)"/>
<path d="M0 0 C0.82229835 -0.00436032 1.6445967 -0.00872064 2.49181318 -0.0132131 C5.25315253 -0.02418015 8.0139937 -0.01374056 10.77532959 -0.00342751 C12.77263775 -0.00688349 14.769944 -0.01164765 16.76724625 -0.01760924 C22.26051993 -0.03015698 27.75363768 -0.02393166 33.246912 -0.01465058 C39.16927788 -0.00787589 45.09161654 -0.01833347 51.01397705 -0.02659035 C61.94684678 -0.03917448 72.87966282 -0.03806268 83.81253541 -0.02985594 C93.91215867 -0.02231182 104.01176366 -0.02033798 114.11138916 -0.02392387 C114.78109782 -0.02415303 115.45080647 -0.02438218 116.14080933 -0.02461828 C118.8593165 -0.02555229 121.57782367 -0.02650749 124.29633082 -0.02749758 C149.8024784 -0.03667635 175.30859423 -0.02835138 200.8147369 -0.01220688 C223.47967803 0.00203013 246.14456859 0.00075626 268.80950928 -0.01358986 C294.2687495 -0.02965077 319.72796168 -0.03602542 345.18720627 -0.02675307 C347.9007848 -0.0257909 350.61436335 -0.02485238 353.32794189 -0.02392387 C353.99610319 -0.02368664 354.66426448 -0.02344941 355.35267308 -0.02320499 C365.44640644 -0.01979134 375.54011954 -0.0237857 385.6338501 -0.03136253 C397.10989475 -0.03976678 408.58587782 -0.03752004 420.0619154 -0.0215203 C425.91980568 -0.01362312 431.77759321 -0.01057065 437.63548279 -0.02046776 C442.9944542 -0.02938515 448.35322728 -0.02453061 453.71218061 -0.0085351 C455.65421969 -0.00517475 457.59627541 -0.00690937 459.53830385 -0.01416247 C462.17221989 -0.02324755 464.80545112 -0.01396642 467.43933105 0 C468.19835708 -0.0070235 468.95738311 -0.014047 469.73940992 -0.02128333 C475.89748587 0.04425336 479.78110334 1.70945829 484.40716553 5.69002342 C488.68163771 10.65765326 490.0951631 14.75676234 490.0871582 21.28043175 C490.09042704 21.95047177 490.09369588 22.62051178 490.09706378 23.31085604 C490.10431236 25.54270439 490.09021931 27.77388958 490.07611084 30.00569725 C490.07690214 31.61085179 490.0790007 33.21600613 490.08230591 34.82115746 C490.08743069 39.16999602 490.07392527 43.51859713 490.05677891 47.86739755 C490.04172997 52.4166399 490.04291672 56.96587936 490.04211426 61.51514244 C490.03842478 69.14891675 490.02346956 76.78260098 490.00091553 84.41634178 C489.97198926 94.22710005 489.96168708 104.03778599 489.95723343 113.84858227 C489.95326008 122.2744758 489.94076133 130.7003535 489.92688656 139.12623572 C489.92278193 141.84023995 489.9198593 144.55424362 489.91709137 147.26824951 C489.91221177 151.52243528 489.9020312 155.77657679 489.88765335 160.03074074 C489.88311719 161.59611486 489.88028859 163.16149495 489.87924576 164.72687531 C489.87750969 166.85447297 489.86965273 168.98195849 489.86010742 171.10953331 C489.85713276 172.30283666 489.8541581 173.49614 489.85109329 174.72560406 C489.71966553 177.37752342 489.71966553 177.37752342 488.71966553 178.37752342 C485.78216553 178.56502342 485.78216553 178.56502342 482.71966553 178.37752342 C482.05966553 177.71752342 481.39966553 177.05752342 480.71966553 176.37752342 C480.71966553 140.73752342 480.71966553 105.09752342 480.71966553 68.37752342 C317.69966553 68.37752342 154.67966553 68.37752342 -13.28033447 68.37752342 C-13.28033447 142.29752342 -13.28033447 216.21752342 -13.28033447 292.37752342 C6.7645874 292.3543203 26.80950928 292.33111717 47.46185303 292.30721092 C60.12200962 292.29699805 72.78216369 292.28727585 85.44232178 292.27986717 C92.08962005 292.27595119 98.73691824 292.27191016 105.38421631 292.26766014 C106.21739274 292.26713264 107.05056916 292.26660515 107.90899336 292.26606166 C121.3750924 292.25735359 134.84117442 292.24158077 148.30726336 292.22321783 C162.11828351 292.20454105 175.92929474 292.19341141 189.740327 292.18934643 C198.26836067 292.18659675 206.79634628 292.17789977 215.32436515 292.16169049 C221.16553707 292.151151 227.00668399 292.14791588 232.84786473 292.15052067 C236.22225832 292.15180672 239.59649952 292.14870114 242.97089005 292.13911247 C246.62239567 292.12924052 250.27369148 292.13152606 253.92520142 292.13701439 C255.53898833 292.12827586 255.53898833 292.12827586 257.185377 292.1193608 C258.15774307 292.1233429 259.13010914 292.127325 260.13194084 292.13142776 C261.3975487 292.1302886 261.3975487 292.1302886 262.6887244 292.12912643 C264.71966553 292.37752342 264.71966553 292.37752342 266.71966553 294.37752342 C266.38995073 297.67467135 266.09698163 299.00020732 263.71966553 301.37752342 C261.69513643 301.62592041 261.69513643 301.62592041 259.14755821 301.62361908 C258.17867554 301.62760118 257.20979287 301.63158327 256.21155012 301.63568604 C255.13958312 301.62986036 254.06761613 301.62403467 252.96316528 301.61803246 C251.263886 301.62059573 251.263886 301.62059573 249.53027785 301.62321079 C245.70841571 301.62652289 241.88672652 301.61547368 238.06488037 301.6045742 C235.33555489 301.60289883 232.60623287 301.60423772 229.87690735 301.60545921 C223.98756472 301.6065095 218.09826629 301.60021793 212.20893478 301.58898354 C203.69388634 301.57275092 195.17885934 301.56752283 186.6637971 301.56500755 C172.84972549 301.56062693 159.03567745 301.54730787 145.22161865 301.52840233 C131.80007038 301.51005303 118.3785285 301.49589188 104.95697021 301.4873867 C104.13009789 301.48686126 103.30322556 301.48633581 102.45129649 301.48579444 C98.30325007 301.48318442 94.15520359 301.48065699 90.00715709 301.47817063 C55.57797626 301.45742669 21.14882343 301.42219118 -13.28033447 301.37752342 C-13.21131704 307.10711459 -13.12328142 312.83598578 -13.0178833 318.56502342 C-12.98470183 320.51253311 -12.9566489 322.46013739 -12.93389893 324.40779686 C-12.90022813 327.21321857 -12.8479062 330.01777871 -12.79205322 332.82283592 C-12.7856633 333.68869316 -12.77927338 334.5545504 -12.77268982 335.44664574 C-12.65213534 340.44320116 -12.17605203 344.11686411 -9.28033447 348.37752342 C-6.24530673 350.30518712 -3.88210421 350.62988305 -0.32157516 350.63923645 C0.68264016 350.64670194 1.68685549 350.65416744 2.72150159 350.66185915 C3.82266144 350.65992442 4.92382128 350.65798969 6.05834961 350.65599632 C7.22966328 350.66178872 8.40097696 350.66758113 9.60778499 350.67354906 C12.85963095 350.68762729 16.11135138 350.69278051 19.36322308 350.69419765 C22.86968641 350.69788921 26.37610222 350.71304346 29.88253784 350.72681236 C35.95789341 350.74909672 42.03323209 350.76410292 48.10861969 350.77417946 C56.89262649 350.78875897 65.67657449 350.81429373 74.46054682 350.84251074 C88.71161771 350.88799199 102.96269705 350.92460128 117.21380615 350.95564842 C131.05822231 350.98582851 144.90261776 351.02017629 158.74700928 351.06014061 C159.60023912 351.06260216 160.45346896 351.06506371 161.33255425 351.06759985 C165.61291629 351.07997434 169.89327809 351.0924309 174.17363977 351.10492826 C209.68895329 351.208516 245.20429092 351.29771267 280.71966553 351.37752342 C280.72803102 341.63125163 280.70363624 331.88573537 280.63938713 322.13967037 C280.61052848 317.61229054 280.59223066 313.08542069 280.59954834 308.55794334 C280.60622013 304.17437664 280.58321925 299.7918107 280.54111099 295.40845108 C280.53011745 293.7506772 280.5291526 292.09280007 280.53924179 290.43502045 C280.60389032 278.23063007 278.24580336 268.66811033 273.71966553 257.37752342 C268.83437866 242.32764829 268.83437866 242.32764829 272.03216553 235.62752342 C276.12429138 232.20155759 280.66757509 230.93884785 285.71966553 229.37752342 C286.72513428 229.06041405 287.73060303 228.74330467 288.76654053 228.41658592 C290.85910568 227.76591268 292.95435284 227.12380244 295.05218506 226.49031639 C298.72072209 225.37720284 302.38118126 224.24097778 306.03997803 223.09627342 C306.72771805 222.88112587 307.41545807 222.66597832 308.1240387 222.44431114 C316.97389655 219.67426841 325.81911454 216.88942217 334.66424561 214.10433006 C347.5035656 210.06203846 360.35519816 206.07144879 373.25726318 202.23299217 C387.04707029 198.12670212 400.77883868 193.86476724 414.46722412 189.43074608 C419.28908963 187.86930427 424.11331164 186.31521025 428.93792725 184.76228905 C431.34489314 183.98745901 433.75149359 183.21149242 436.15765381 182.43416405 C439.34264741 181.40773827 442.5301112 180.38968013 445.71966553 179.37752342 C446.65979492 179.07733299 447.59992432 178.77714256 448.56854248 178.46785545 C456.69872273 175.9357882 456.69872273 175.9357882 461.03216553 175.87752342 C462.20198975 175.83111717 462.20198975 175.83111717 463.39544678 175.78377342 C467.04239337 176.71543037 468.40452313 178.4347369 470.71966553 181.37752342 C472.07399332 184.44666552 473.00069906 187.58899618 473.90716553 190.81502342 C474.40047921 192.48044012 474.89396492 194.14580587 475.38763428 195.81111717 C475.61434814 196.60058739 475.84106201 197.3900576 476.074646 198.20345116 C476.61617388 200.02869939 477.23178713 201.83173903 477.86419678 203.62752342 C478.75453137 206.48960357 479.11752379 208.94812183 479.21966553 211.94002342 C479.29700928 213.30320702 479.29700928 213.30320702 479.37591553 214.69392967 C478.5839988 217.93230342 477.14016698 219.32275645 474.49847412 221.29915428 C471.60158844 223.05533656 468.52512109 224.00280014 465.28216553 224.87752342 C464.02532959 225.23846092 462.76849365 225.59939842 461.47357178 225.97127342 C460.75822266 226.17655663 460.04287354 226.38183983 459.30584717 226.59334373 C456.03496798 227.5851368 452.80246373 228.67693286 449.56341553 229.76814842 C442.30609334 232.21066714 434.99575249 234.44073902 427.65716553 236.62752342 C409.98304776 241.92788932 392.39122714 247.48799322 374.79754639 253.04842186 C362.99971779 256.77610256 351.19499892 260.48005846 339.37689209 264.14290428 C338.04120062 264.55712065 336.7055174 264.97136359 335.36984253 265.38563347 C332.15319726 266.38318974 328.93647059 267.38048257 325.71966553 268.37752342 C326.51811701 268.37991178 327.31656849 268.38230013 328.13921547 268.38476086 C347.56903629 268.44390182 366.99872999 268.51944613 386.4284153 268.61323833 C395.82447818 268.65820021 405.22050313 268.69761399 414.61663818 268.72395897 C422.80649504 268.74693586 430.99623188 268.78033045 439.18599355 268.82622498 C443.52225422 268.85016137 447.858396 268.86888742 452.19472122 268.87513733 C456.27741785 268.88118631 460.35981026 268.90117931 464.44239426 268.93179893 C465.93953082 268.94058216 467.43670713 268.94430114 468.93386841 268.94253159 C470.98152098 268.94087574 473.02824955 268.95760264 475.07577515 268.97879601 C476.22064203 268.98340497 477.36550892 268.98801394 478.54506874 268.99276257 C482.19865181 269.43557652 484.59184451 270.45843935 487.71966553 272.37752342 C490.07894091 275.9164365 489.97469078 277.39443863 489.98709106 281.58904076 C489.99562103 282.89013283 490.004151 284.1912249 490.01293945 285.531744 C490.0122404 286.9769193 490.01131733 288.42209449 490.01019287 289.86726952 C490.01617611 291.38667698 490.02298119 292.9060814 490.0305481 294.4254818 C490.04823652 298.55568965 490.05290468 302.68581466 490.05417967 306.81605673 C490.05607765 310.26289517 490.06343404 313.70971427 490.07052386 317.15654528 C490.08681635 325.28848284 490.09169204 333.42037611 490.090271 341.55232811 C490.08906943 349.94287659 490.11017209 358.3331679 490.14175832 366.72365129 C490.1679043 373.92544115 490.17863899 381.12714694 490.17736018 388.3289839 C490.17685003 392.63114813 490.18256203 396.93308389 490.20371628 401.23520088 C490.22307045 405.28182485 490.22324276 409.32800175 490.20868301 413.37464142 C490.20659026 414.85932823 490.21132366 416.34404281 490.22340393 417.82868195 C490.23883374 419.85641121 490.2271596 421.88429262 490.21414185 423.9120388 C490.21523138 425.04655668 490.21632092 426.18107456 490.21744347 427.34997177 C489.60892267 431.05107624 488.30587168 432.71189202 485.71966553 435.37752342 C482.63158687 436.92156275 479.37834377 436.52181988 475.98922729 436.51796532 C474.77808236 436.522422 474.77808236 436.522422 473.54246986 436.52696872 C470.82173959 436.53567916 468.10105319 436.53716593 465.38031006 436.53865623 C463.43579005 436.54328272 461.49127096 436.54830715 459.54675293 436.5537014 C454.25338352 436.56684304 448.9600268 436.5732737 443.66664362 436.57771206 C440.36230325 436.58063972 437.05796639 436.58474392 433.75362778 436.58921623 C423.42303328 436.60289531 413.09244673 436.61256017 402.7618438 436.61641812 C390.82180691 436.62090117 378.88188436 436.6384588 366.94188225 436.66741872 C357.72232041 436.68900703 348.50279082 436.69912086 339.28320396 436.70045924 C333.77217397 436.70150924 328.26125141 436.7074585 322.75024796 436.72527885 C317.56777305 436.74171047 312.3854869 436.743939 307.2029953 436.73513985 C305.29862591 436.73436685 303.39424657 436.73874652 301.4899025 436.7485981 C298.89439808 436.76123999 296.29957003 436.7554834 293.70407104 436.7450161 C292.94667889 436.7530725 292.18928673 436.76112891 291.4089433 436.76942945 C287.11656794 436.72881438 284.94113052 436.18672847 281.71966553 433.37752342 C279.07063978 433.00835069 276.62407025 432.77783454 273.96966553 432.69002342 C273.27228271 432.65586327 272.5748999 432.62170311 271.85638428 432.5865078 C270.14469445 432.50444048 268.43220793 432.43929423 266.71966553 432.37752342 C266.05966553 433.69752342 265.39966553 435.01752342 264.71966553 436.37752342 C246.63086799 436.42419533 228.54208603 436.45948862 210.45324135 436.48114777 C202.05472428 436.49147072 193.65624456 436.50555046 185.25775146 436.52840233 C177.93964183 436.54830507 170.62155924 436.56123244 163.30342329 436.56570041 C159.42670111 436.56831309 155.55005634 436.57447504 151.67335892 436.58898354 C148.02743751 436.60251832 144.38162568 436.60675444 140.73568153 436.60373878 C138.7536492 436.60455478 136.77162891 436.61533783 134.78962708 436.62636375 C133.61731033 436.62361443 132.44499359 436.6208651 131.2371521 436.61803246 C129.70236678 436.62079783 129.70236678 436.62079783 128.1365757 436.62361908 C125.71966553 436.37752342 125.71966553 436.37752342 123.71966553 434.37752342 C123.34466553 431.94002342 123.34466553 431.94002342 123.71966553 429.37752342 C125.98122823 427.11661328 127.36176672 426.42307085 130.55444336 426.01675987 C131.64698425 426.02342171 132.73952515 426.03008354 133.86517334 426.03694725 C135.12345947 426.0373098 136.38174561 426.03767235 137.67816162 426.03804588 C138.99638916 426.05339378 140.3146167 426.06874168 141.67279053 426.08455467 C142.8875708 426.08757591 144.10235107 426.09059715 145.35394287 426.09370995 C149.89260349 426.10940829 154.43114302 426.1512922 158.96966553 426.19002342 C169.11716553 426.25189842 179.26466553 426.31377342 189.71966553 426.37752342 C189.71966553 404.59752342 189.71966553 382.81752342 189.71966553 360.37752342 C183.75307861 360.39323387 177.7864917 360.40894432 171.63909912 360.42513084 C151.95360087 360.47477907 132.2681002 360.50810605 112.58255577 360.53295994 C100.64401434 360.54843329 88.70553219 360.56953184 76.76702881 360.60384178 C66.36225935 360.63372971 55.95753282 360.65309501 45.55272162 360.65978891 C40.04270655 360.66370217 34.53281432 360.67290877 29.02283859 360.69471359 C23.83711243 360.71506907 18.65155975 360.72135908 13.46579742 360.71684647 C11.56226535 360.71767208 9.65872749 360.72364327 7.75522995 360.73513985 C5.1559529 360.75006925 2.55733058 360.74647543 -0.04196167 360.73828697 C-0.79489238 360.7470255 -1.5478231 360.75576402 -2.32356989 360.76476735 C-8.07934907 360.71576901 -12.13457591 359.37432689 -16.36236572 355.44002342 C-16.93342041 354.75939842 -17.5044751 354.07877342 -18.09283447 353.37752342 C-18.67677979 352.69689842 -19.2607251 352.01627342 -19.86236572 351.31502342 C-22.36876788 347.89029761 -22.40666285 344.94810206 -22.41176224 340.84017277 C-22.41560338 339.68141248 -22.41944453 338.5226522 -22.42340207 337.32877797 C-22.42210235 335.41033258 -22.42210235 335.41033258 -22.42077637 333.45313072 C-22.42335944 332.08538314 -22.42637244 330.71763631 -22.42977977 329.34989053 C-22.43785976 325.58292597 -22.43963989 321.81598045 -22.44037724 318.04900825 C-22.44222605 313.98959838 -22.44977249 309.93019844 -22.45651245 305.8707943 C-22.4701032 296.99068836 -22.47612159 288.11058693 -22.48052311 279.23047233 C-22.48328417 273.68767943 -22.48752126 268.14488828 -22.49202728 262.60209656 C-22.50422071 247.26130819 -22.51452001 231.92052123 -22.51790237 216.57972813 C-22.51812194 215.59759593 -22.51834151 214.61546373 -22.51856773 213.60356994 C-22.518786 212.61906427 -22.51900428 211.63455859 -22.51922917 210.62021941 C-22.51967264 208.62517687 -22.52011921 206.63013432 -22.52056885 204.63509178 C-22.52079028 203.64547804 -22.52101171 202.65586431 -22.52123985 201.63626228 C-22.52518878 185.59703327 -22.54264539 169.55784968 -22.56592837 153.51863822 C-22.58962953 137.05875183 -22.60210365 120.59888824 -22.60327029 104.1389845 C-22.60418773 94.89438264 -22.60995727 85.64983995 -22.6280899 76.40525436 C-22.6434742 68.53402162 -22.64862124 60.66286632 -22.6403518 52.79162141 C-22.63643941 48.77469532 -22.63740351 44.75792528 -22.65140915 40.7410183 C-22.66411282 37.06394224 -22.6629819 33.38714005 -22.65081844 29.71006457 C-22.64792503 27.74919854 -22.65982394 25.78832794 -22.6722405 23.82749909 C-22.62954284 16.26884007 -22.02528773 11.56760423 -16.96783447 5.69002342 C-11.59919922 1.07050007 -6.95623796 -0.06436818 0 0 Z " fill="#321B64" transform="translate(22.28033447265625,37.62247657775879)"/>
<path d="M0 0 C0.80817205 -0.00320648 1.61634409 -0.00641296 2.4490062 -0.0097166 C5.17423886 -0.01805975 7.89925422 -0.01207727 10.62449074 -0.00622082 C12.59119806 -0.00923954 14.5579042 -0.0131276 16.52460825 -0.01781338 C21.94255797 -0.02813823 27.36044185 -0.02590019 32.77839708 -0.02163279 C38.61626756 -0.01917367 44.45412185 -0.02816958 50.29198647 -0.03567028 C61.73429961 -0.04844212 73.17658932 -0.05020788 84.61890839 -0.04787002 C93.91653422 -0.04608944 103.21415291 -0.0478309 112.51177788 -0.05209446 C113.84670011 -0.05269686 115.18162235 -0.05329805 116.51654459 -0.05389806 C118.52805333 -0.0548053 120.53956206 -0.05571396 122.5510708 -0.05663041 C141.25803637 -0.06506247 159.96499935 -0.06939391 178.67196655 -0.06522369 C179.73023001 -0.06498913 179.73023001 -0.06498913 180.80987252 -0.06474983 C184.38581545 -0.06394402 187.96175837 -0.06309825 191.53770129 -0.06223653 C192.24791697 -0.06206544 192.95813265 -0.06189435 193.68987001 -0.06171808 C195.12609943 -0.06137142 196.56232885 -0.06102289 197.99855827 -0.06067249 C220.34764975 -0.05531496 242.69670178 -0.06324558 265.0457859 -0.08170605 C290.14536692 -0.10241407 315.2449235 -0.11315103 340.34451354 -0.10913056 C343.01992774 -0.1087352 345.69534194 -0.10837366 348.37075615 -0.10803318 C349.68721252 -0.10786534 351.0036689 -0.1076975 352.36001789 -0.10752458 C361.64819061 -0.10708619 370.93634132 -0.11398817 380.22450829 -0.1238451 C391.5413972 -0.13573308 402.85822804 -0.1371929 414.17511772 -0.12505493 C419.95198672 -0.11914801 425.72874937 -0.11811673 431.50561142 -0.13005733 C436.79064202 -0.14085462 442.07547671 -0.13788654 447.36049791 -0.12379565 C449.27568093 -0.12113166 451.190879 -0.12356816 453.10604732 -0.13153151 C455.7037646 -0.14158587 458.30079403 -0.13326004 460.89848328 -0.12025452 C462.02103423 -0.13121854 462.02103423 -0.13121854 463.16626298 -0.14240405 C467.87206182 -0.09337004 471.14802232 0.62943498 475.07508278 3.25447559 C483.15191967 16.71587041 478.07508278 34.55592647 478.07508278 50.25447559 C315.05508278 50.25447559 152.03508278 50.25447559 -15.92491722 50.25447559 C-15.92491722 8.25447559 -15.92491722 8.25447559 -11.92491722 2.25447559 C-8.40864535 -0.46904891 -4.26304714 -0.02488869 0 0 Z " fill="#AEE8FF" transform="translate(24.924917221069336,46.745524406433105)"/>
<path d="M0 0 C63.36 0 126.72 0 192 0 C192 36.3 192 72.6 192 110 C144.14238592 110.04030303 144.14238592 110.04030303 124.15429688 110.04882812 C110.32934195 110.05477177 96.5043931 110.06177525 82.67944336 110.07543945 C72.61275651 110.08538437 62.54607456 110.09185297 52.47938293 110.09408849 C47.14563289 110.09539593 41.81189688 110.09848384 36.47815132 110.10573006 C31.46402341 110.11248725 26.44991541 110.11461758 21.43578339 110.11310768 C19.58982421 110.11338415 17.74386442 110.11539104 15.89790916 110.11920547 C13.3890322 110.12413803 10.88023167 110.12299992 8.37135315 110.12025452 C7.63109487 110.12316736 6.89083658 110.1260802 6.12814623 110.12908131 C1.11412121 110.11412121 1.11412121 110.11412121 0 109 C-0.09550698 107.58321089 -0.12188483 106.16168759 -0.12025452 104.74168396 C-0.12163201 103.82508468 -0.12300951 102.90848539 -0.12442875 101.96411037 C-0.12083064 100.94655698 -0.11723253 99.92900358 -0.11352539 98.88061523 C-0.11364593 97.80006646 -0.11376646 96.71951769 -0.11389065 95.60622501 C-0.11314115 92.09032736 -0.10551121 88.57448198 -0.09765625 85.05859375 C-0.09618695 82.89522324 -0.09516617 80.73185238 -0.09460449 78.56848145 C-0.08935026 70.52481556 -0.0753892 62.48115727 -0.0625 54.4375 C-0.041875 36.473125 -0.02125 18.50875 0 0 Z " fill="#FFDA8B" transform="translate(311,355)"/>
<path d="M0 0 C0.33 0 0.66 0 1 0 C1 24.42 1 48.84 1 74 C-35.33258726 74.08816449 -71.66507373 74.16202775 -107.99773733 74.20426132 C-112.2860894 74.20926421 -116.57444124 74.21444149 -120.86279297 74.21972656 C-122.14340591 74.22130043 -122.14340591 74.22130043 -123.44988982 74.22290608 C-137.27777181 74.24031642 -151.10558736 74.27185757 -164.93342991 74.30861118 C-179.11963041 74.34600312 -193.30579609 74.36823215 -207.49204385 74.37635398 C-216.24737686 74.38184539 -225.00252208 74.39919614 -233.75779729 74.43166587 C-239.75973645 74.4527922 -245.76157837 74.45920432 -251.76355202 74.45400551 C-255.22763001 74.45144077 -258.69137957 74.45540183 -262.15539932 74.4768219 C-265.91079914 74.49666235 -269.66538914 74.49195979 -273.42080688 74.48101807 C-274.51614105 74.49266943 -275.61147521 74.5043208 -276.74000132 74.51632524 C-282.59677679 74.47006 -286.54374815 74.23566796 -291 70 C-293.77329763 65.60654409 -293.25490685 60.57153974 -293.1953125 55.54296875 C-293.1924826 54.64000565 -293.18965271 53.73704254 -293.18673706 52.80671692 C-293.17557607 49.93350766 -293.15047897 47.06061445 -293.125 44.1875 C-293.11496493 42.23503056 -293.10584 40.28255621 -293.09765625 38.33007812 C-293.07565008 33.55326434 -293.04114831 28.77668569 -293 24 C-292.12252335 23.99910437 -292.12252335 23.99910437 -291.2273199 23.99819064 C-256.5810557 23.9623217 -221.93488923 23.90572136 -187.28870712 23.82207905 C-183.13168075 23.81206121 -178.97465399 23.80221714 -174.81762695 23.79248047 C-173.99001359 23.7905391 -173.16240023 23.78859772 -172.30970768 23.78659752 C-158.89692926 23.75554924 -145.48416797 23.73858899 -132.07136037 23.72680578 C-118.31565595 23.71440884 -104.56004163 23.68694052 -90.80439407 23.64538693 C-82.31166298 23.62020964 -73.81908122 23.60688579 -65.32631228 23.60857043 C-59.50796155 23.60860011 -53.6897633 23.59403301 -47.87147196 23.56783572 C-44.51101274 23.55314081 -41.15113065 23.54718609 -37.79060555 23.55419731 C-34.15231632 23.56077963 -30.51495086 23.54305431 -26.87675476 23.51898193 C-25.80770061 23.52674235 -24.73864645 23.53450277 -23.63719672 23.54249835 C-22.666323 23.53105076 -21.69544928 23.51960317 -20.69515514 23.50780869 C-19.85483405 23.5062898 -19.01451296 23.50477092 -18.1487276 23.50320601 C-15.25505543 22.82554299 -14.66793219 21.36963773 -13 19 C-8.61723375 18.45420096 -4.43192924 18.82447805 0 19 C0 12.73 0 6.46 0 0 Z " fill="#7FD4FC" transform="translate(302,315)"/>
<path d="M0 0 C0.80817205 -0.00320648 1.61634409 -0.00641296 2.4490062 -0.0097166 C5.17423886 -0.01805975 7.89925422 -0.01207727 10.62449074 -0.00622082 C12.59119806 -0.00923954 14.5579042 -0.0131276 16.52460825 -0.01781338 C21.94255797 -0.02813823 27.36044185 -0.02590019 32.77839708 -0.02163279 C38.61626756 -0.01917367 44.45412185 -0.02816958 50.29198647 -0.03567028 C61.73429961 -0.04844212 73.17658932 -0.05020788 84.61890839 -0.04787002 C93.91653422 -0.04608944 103.21415291 -0.0478309 112.51177788 -0.05209446 C113.84670011 -0.05269686 115.18162235 -0.05329805 116.51654459 -0.05389806 C118.52805333 -0.0548053 120.53956206 -0.05571396 122.5510708 -0.05663041 C141.25803637 -0.06506247 159.96499935 -0.06939391 178.67196655 -0.06522369 C179.73023001 -0.06498913 179.73023001 -0.06498913 180.80987252 -0.06474983 C184.38581545 -0.06394402 187.96175837 -0.06309825 191.53770129 -0.06223653 C192.24791697 -0.06206544 192.95813265 -0.06189435 193.68987001 -0.06171808 C195.12609943 -0.06137142 196.56232885 -0.06102289 197.99855827 -0.06067249 C220.34764975 -0.05531496 242.69670178 -0.06324558 265.0457859 -0.08170605 C290.14536692 -0.10241407 315.2449235 -0.11315103 340.34451354 -0.10913056 C343.01992774 -0.1087352 345.69534194 -0.10837366 348.37075615 -0.10803318 C349.68721252 -0.10786534 351.0036689 -0.1076975 352.36001789 -0.10752458 C361.64819061 -0.10708619 370.93634132 -0.11398817 380.22450829 -0.1238451 C391.5413972 -0.13573308 402.85822804 -0.1371929 414.17511772 -0.12505493 C419.95198672 -0.11914801 425.72874937 -0.11811673 431.50561142 -0.13005733 C436.79064202 -0.14085462 442.07547671 -0.13788654 447.36049791 -0.12379565 C449.27568093 -0.12113166 451.190879 -0.12356816 453.10604732 -0.13153151 C455.7037646 -0.14158587 458.30079403 -0.13326004 460.89848328 -0.12025452 C462.02103423 -0.13121854 462.02103423 -0.13121854 463.16626298 -0.14240405 C467.87206182 -0.09337004 471.14802232 0.62943498 475.07508278 3.25447559 C478.38711202 7.21918985 478.40430579 10.51218826 478.26258278 15.56697559 C478.23551247 16.82123341 478.20844215 18.07549122 478.18055153 19.36775684 C478.1283445 20.79668262 478.1283445 20.79668262 478.07508278 22.25447559 C477.1047745 22.25469296 476.13446622 22.25491033 475.13475466 22.25513428 C417.64972113 22.26845268 360.16475033 22.30808966 302.67976108 22.38133122 C295.78028523 22.39011508 288.88080909 22.39865372 281.98133278 22.40706348 C281.29475121 22.40790453 280.60816965 22.40874558 279.90078258 22.40961211 C257.64586429 22.43675896 235.39097383 22.44771269 213.13604028 22.45027084 C189.61830163 22.45306208 166.10065924 22.47430082 142.58295012 22.51500016 C128.49342683 22.53878663 114.40405233 22.5477887 100.31451172 22.5379887 C90.65794723 22.53268047 81.0015163 22.54566668 71.34498984 22.5731385 C65.7703686 22.58845436 60.1960462 22.59560872 54.62141609 22.58107281 C49.51854961 22.56794484 44.41626295 22.57776952 39.31346196 22.60591332 C37.46677219 22.61203565 35.62003117 22.60970726 33.7733677 22.59810486 C20.98368212 22.27142548 20.98368212 22.27142548 10.07508278 28.25447559 C6.85232302 32.84739069 6.56070362 37.20054038 6.38758278 42.62947559 C6.28445778 45.14572559 6.18133278 47.66197559 6.07508278 50.25447559 C-1.18491722 50.25447559 -8.44491722 50.25447559 -15.92491722 50.25447559 C-16.01691259 44.38210441 -16.09650049 38.51224803 -16.14464378 32.6397295 C-16.16471891 30.64354942 -16.19198511 28.64742785 -16.22667503 26.65144825 C-16.27537379 23.77678939 -16.29792708 20.9029102 -16.31554222 18.02791309 C-16.33618736 17.14018208 -16.3568325 16.25245106 -16.37810326 15.3378191 C-16.38008284 9.83119745 -15.72394277 6.5460909 -11.92491722 2.25447559 C-8.23754481 -0.30554513 -4.31813133 -0.02521029 0 0 Z " fill="#FDFCFD" transform="translate(24.924917221069336,46.745524406433105)"/>
<path d="M0 0 C163.02 0 326.04 0 494 0 C494.33 35.64 494.66 71.28 495 108 C496.32 108.66 497.64 109.32 499 110 C499 140.69 499 171.38 499 203 C497.68 202.67 496.36 202.34 495 202 C492.82929171 201.89883497 490.65575833 201.85377785 488.48272705 201.84178162 C487.83002453 201.83684364 487.177322 201.83190566 486.50484061 201.82681805 C484.31996136 201.81147228 482.13511144 201.80309039 479.95019531 201.79467773 C478.38312015 201.78509691 476.81604755 201.77508671 475.24897766 201.76467896 C470.99523442 201.73764596 466.74148011 201.7166277 462.48769855 201.69667697 C458.04205113 201.67480753 453.59643779 201.64742352 449.15081787 201.62062073 C440.7325943 201.57070681 432.31435181 201.52576314 423.89609122 201.48259836 C414.31211963 201.43321488 404.72818223 201.37830086 395.14424372 201.32291877 C375.42952767 201.2091187 355.71477898 201.10227534 336 201 C339.19116174 198.87255884 341.87909449 197.96542501 345.53393555 196.8203125 C346.19498291 196.61175125 346.85603027 196.40319 347.53710938 196.18830872 C349.73556926 195.49596007 351.93610894 194.81048154 354.13671875 194.125 C355.69257851 193.63656165 357.24830631 193.14770278 358.8039093 192.65844727 C362.92820833 191.36257992 367.05430213 190.07252031 371.18078613 188.78363037 C375.24987317 187.51158244 379.31724771 186.23408579 383.38476562 184.95703125 C390.57940408 182.69902966 397.77585847 180.44688444 404.97324657 178.19766426 C409.62298541 176.74427927 414.27170743 175.28770641 418.91940784 173.82781601 C421.84076096 172.91029598 424.76250031 171.99400978 427.68428993 171.07788086 C429.03624976 170.65365318 430.38804166 170.22888989 431.739645 169.80352783 C439.93192123 167.22578088 448.14125021 164.78311523 456.43505859 162.55470276 C461.1782365 161.26853791 465.75549016 159.72914676 470.33984375 157.96484375 C474.508084 156.45301505 478.78112992 155.30101584 483.0546875 154.125 C486.38344564 152.85353801 488.50155898 151.54378478 491 149 C492.71369555 142.43260774 490.62788192 136.05457765 488.140625 129.9765625 C486.40569753 125.44911478 485.30106889 120.76543149 484.125 116.06640625 C482.83102551 112.53942717 482.18539148 111.02570989 479 109 C472.18616872 107.93863398 466.1919413 109.49880425 459.8125 111.75 C457.91633503 112.38571444 456.01910133 113.01824572 454.12109375 113.6484375 C453.03425293 114.01163086 451.94741211 114.37482422 450.82763672 114.74902344 C443.60348151 117.13166612 436.31792208 119.32608038 429.04550171 121.55578613 C426.39789124 122.36797779 423.75122823 123.18319526 421.10473633 123.99902344 C419.45267448 124.50728421 417.80057643 125.01542734 416.1484375 125.5234375 C415.38576065 125.75858063 414.6230838 125.99372375 413.83729553 126.23599243 C410.57360919 127.23683249 407.31652179 128.19227375 404 129 C406.57171437 125.01322748 409.31831943 121.26780181 412.26171875 117.54882812 C438.22000821 84.58242904 456.06597979 46.34621083 466.2734375 5.73828125 C467 3 467 3 468 1 C313.56 1 159.12 1 0 1 C0 0.67 0 0.34 0 0 Z " fill="#DDD6EB" transform="translate(9,106)"/>
<path d="M0 0 C63.36 0 126.72 0 192 0 C192 36.3 192 72.6 192 110 C136.23 110 80.46 110 23 110 C23 103.73 23 97.46 23 91 C26.9909375 91.495 26.9909375 91.495 31.0625 92 C62.99545256 95.60672839 94.21792464 88.88802385 120 69 C122.01960695 67.35714714 124.02053949 65.69100972 126 64 C127.44632813 62.77990234 127.44632813 62.77990234 128.921875 61.53515625 C135.36505896 55.90182 140.83302175 49.81370605 146 43 C146.59296875 42.22269531 147.1859375 41.44539063 147.796875 40.64453125 C151.36951832 35.75263203 154.48792825 30.62375236 157.5 25.375 C157.84353516 24.78501221 158.18707031 24.19502441 158.54101562 23.5871582 C162.64573501 16.27158109 165.5923589 8.78889395 169 1 C113.56 1 58.12 1 1 1 C1 36.64 1 72.28 1 109 C0.67 109 0.34 109 0 109 C0 73.03 0 37.06 0 0 Z " fill="#FABC73" transform="translate(311,355)"/>
<path d="M0 0 C4.14031659 1.81205865 7.98433902 4.08321667 11.875 6.375 C13.55154663 7.33901733 13.55154663 7.33901733 15.26196289 8.32250977 C18.51731513 10.19948862 21.76035224 12.0960743 25 14 C26.5012173 14.87644733 28.00250721 15.7527703 29.50390625 16.62890625 C32.15900477 18.18379893 34.80728391 19.7497291 37.453125 21.3203125 C43.1679007 24.70289812 48.93123734 28.00121628 54.6875 31.3125 C59.12664455 33.87215886 63.56380522 36.43523265 68 39 C69.0729834 39.6197168 70.1459668 40.23943359 71.25146484 40.87792969 C74.29678246 42.64078587 77.33667876 44.41261889 80.375 46.1875 C81.28983154 46.71577393 82.20466309 47.24404785 83.1472168 47.78833008 C91.43442202 52.6520617 91.43442202 52.6520617 94 56 C94.45804473 60.27508418 94.45728002 63.43626516 92 67 C89.6885719 68.5800778 87.43851017 69.95726904 85 71.3125 C84.2587085 71.73635986 83.51741699 72.16021973 82.75366211 72.59692383 C81.08926123 73.54822649 79.42235328 74.4951516 77.75341797 75.43847656 C73.76458698 77.7006297 69.79826122 80.00123427 65.8293457 82.2980957 C62.49789541 84.22486454 59.16341452 86.14629176 55.828125 88.06640625 C50.23923212 91.28456801 44.65538794 94.51136316 39.07324219 97.74121094 C35.84333185 99.60718789 32.60950695 101.46622344 29.375 103.32421875 C25.06704221 105.79997302 20.77876435 108.30619252 16.5 110.83203125 C14.43767885 112.03416104 12.37518612 113.23599655 10.3125 114.4375 C8.905448 115.28078857 8.905448 115.28078857 7.4699707 116.14111328 C2.49817873 119.01422969 -1.07974939 120.89908568 -7 120 C-10.38939556 117.86320715 -11.72582557 116.8225233 -13 113 C-13.09675942 111.53929513 -13.13914855 110.07463242 -13.14717102 108.61074829 C-13.15432632 107.71353561 -13.16148163 106.81632294 -13.16885376 105.891922 C-13.17154266 104.91003403 -13.17423157 103.92814606 -13.17700195 102.91650391 C-13.18357315 101.88046524 -13.19014435 100.84442657 -13.19691467 99.7769928 C-13.21664958 96.34351533 -13.22830939 92.91008155 -13.23828125 89.4765625 C-13.24235678 88.3050703 -13.2464323 87.13357811 -13.25063133 85.92658615 C-13.27149068 79.72872849 -13.28579426 73.53089298 -13.29516602 67.33300781 C-13.30624346 60.92465679 -13.3406595 54.51665175 -13.38033772 48.10842323 C-13.40644935 43.18595727 -13.41485291 38.26357452 -13.41844749 33.34104538 C-13.42332581 30.9783125 -13.43497498 28.61558365 -13.45348549 26.25291824 C-13.47776519 22.94909239 -13.47693225 19.64617242 -13.4699707 16.34228516 C-13.48278076 15.36444565 -13.49559082 14.38660614 -13.50878906 13.37913513 C-13.47553123 9.05486934 -13.40936401 6.66291353 -11.09562683 2.91610718 C-7.63151261 -0.25125737 -4.56805972 -0.87993779 0 0 Z " fill="#FD8F9A" transform="translate(229,156)"/>
<path d="M0 0 C83.82 0 167.64 0 254 0 C251.36106315 2.63893685 248.9025617 3.20523766 245.359375 4.390625 C244.68957108 4.61581818 244.01976715 4.84101135 243.32966614 5.07302856 C241.13888004 5.80625967 238.94489591 6.52917086 236.75 7.25 C236.00048065 7.49743958 235.2509613 7.74487915 234.47872925 7.99981689 C214.52638993 14.57549532 194.67869165 19.82956258 173.96875 23.47705078 C172.16005028 23.79565562 170.35241969 24.12051903 168.546875 24.45654297 C126.80420041 32.20119566 83.76206854 31.59110389 41.81591797 26.45361328 C37.80543954 25.97687183 33.79417453 25.58088949 29.76977539 25.24389648 C28 25 28 25 26 24 C26.11480031 26.85490236 26.24152964 29.7084588 26.375 32.5625 C26.4059375 33.36236328 26.436875 34.16222656 26.46875 34.98632812 C26.71256564 39.96423083 27.43631388 44.26444649 29 49 C25.27124612 49.14560195 21.54322566 49.23417043 17.8125 49.3125 C16.22985352 49.3753418 16.22985352 49.3753418 14.61523438 49.43945312 C6.76702787 49.56324187 6.76702787 49.56324187 2.82421875 46.66796875 C-6.21634678 33.44589968 0 14.54977907 0 0 Z " fill="#ACE7FF" transform="translate(9,339)"/>
<path d="M0 0 C26.73 0 53.46 0 81 0 C81.4375 33.75 81.4375 33.75 81.56811523 44.39746094 C81.6113795 47.55350611 81.6113795 47.55350611 81.65589905 50.70953369 C81.67509038 52.11266858 81.69241958 53.51582971 81.70826721 54.91900635 C81.73266914 57.04732649 81.7630224 59.17548795 81.79467773 61.30371094 C81.81799416 63.10240631 81.81799416 63.10240631 81.84178162 64.93743896 C81.91149232 68.19042191 81.91149232 68.19042191 83 72 C78.05 72 73.1 72 68 72 C67.34 70.68 66.68 69.36 66 68 C33.33 67.505 33.33 67.505 0 67 C0 44.89 0 22.78 0 0 Z " fill="#ACE7FE" transform="translate(221,398)"/>
<path d="M0 0 C4.14031659 1.81205865 7.98433902 4.08321667 11.875 6.375 C13.55154663 7.33901733 13.55154663 7.33901733 15.26196289 8.32250977 C18.51731513 10.19948862 21.76035224 12.0960743 25 14 C26.5012173 14.87644733 28.00250721 15.7527703 29.50390625 16.62890625 C32.15900477 18.18379893 34.80728391 19.7497291 37.453125 21.3203125 C43.1679007 24.70289812 48.93123734 28.00121628 54.6875 31.3125 C59.12664455 33.87215886 63.56380522 36.43523265 68 39 C69.0729834 39.6197168 70.1459668 40.23943359 71.25146484 40.87792969 C74.29678246 42.64078587 77.33667876 44.41261889 80.375 46.1875 C81.28983154 46.71577393 82.20466309 47.24404785 83.1472168 47.78833008 C91.43442202 52.6520617 91.43442202 52.6520617 94 56 C94.45804473 60.27508418 94.45728002 63.43626516 92 67 C89.6885719 68.5800778 87.43851017 69.95726904 85 71.3125 C84.2587085 71.73635986 83.51741699 72.16021973 82.75366211 72.59692383 C81.08926123 73.54822649 79.42235328 74.4951516 77.75341797 75.43847656 C73.76458698 77.7006297 69.79826122 80.00123427 65.8293457 82.2980957 C62.49789541 84.22486454 59.16341452 86.14629176 55.828125 88.06640625 C50.23923212 91.28456801 44.65538794 94.51136316 39.07324219 97.74121094 C35.84333185 99.60718789 32.60950695 101.46622344 29.375 103.32421875 C25.06704221 105.79997302 20.77876435 108.30619252 16.5 110.83203125 C14.43767885 112.03416104 12.37518612 113.23599655 10.3125 114.4375 C8.905448 115.28078857 8.905448 115.28078857 7.4699707 116.14111328 C2.49817873 119.01422969 -1.07974939 120.89908568 -7 120 C-10.38939556 117.86320715 -11.72582557 116.8225233 -13 113 C-13.09675942 111.53929513 -13.13914855 110.07463242 -13.14717102 108.61074829 C-13.15432632 107.71353561 -13.16148163 106.81632294 -13.16885376 105.891922 C-13.17154266 104.91003403 -13.17423157 103.92814606 -13.17700195 102.91650391 C-13.18357315 101.88046524 -13.19014435 100.84442657 -13.19691467 99.7769928 C-13.21664958 96.34351533 -13.22830939 92.91008155 -13.23828125 89.4765625 C-13.24235678 88.3050703 -13.2464323 87.13357811 -13.25063133 85.92658615 C-13.27149068 79.72872849 -13.28579426 73.53089298 -13.29516602 67.33300781 C-13.30624346 60.92465679 -13.3406595 54.51665175 -13.38033772 48.10842323 C-13.40644935 43.18595727 -13.41485291 38.26357452 -13.41844749 33.34104538 C-13.42332581 30.9783125 -13.43497498 28.61558365 -13.45348549 26.25291824 C-13.47776519 22.94909239 -13.47693225 19.64617242 -13.4699707 16.34228516 C-13.48278076 15.36444565 -13.49559082 14.38660614 -13.50878906 13.37913513 C-13.47553123 9.05486934 -13.40936401 6.66291353 -11.09562683 2.91610718 C-7.63151261 -0.25125737 -4.56805972 -0.87993779 0 0 Z M-4 9 C-4 42.66 -4 76.32 -4 111 C-0.37193866 109.54877547 2.74228784 108.12455815 6.11328125 106.234375 C7.10126709 105.68144775 8.08925293 105.12852051 9.10717773 104.55883789 C10.16493408 103.96192139 11.22269043 103.36500488 12.3125 102.75 C13.42117432 102.12665771 14.52984863 101.50331543 15.67211914 100.86108398 C25.11606969 95.53443085 34.48709143 90.08649075 43.83984375 84.6015625 C48.21733357 82.03625551 52.60607939 79.49118528 57.00390625 76.9609375 C57.58953842 76.62390305 58.17517059 76.28686859 58.77854919 75.93962097 C61.60893301 74.31130683 64.44043604 72.68497283 67.27319336 71.06079102 C72.92177111 67.81302553 78.50142517 64.49608904 84 61 C82.74327861 57.22983584 81.70437669 56.99288597 78.27734375 55.13671875 C77.27646729 54.58701416 76.27559082 54.03730957 75.24438477 53.47094727 C74.15311279 52.88240967 73.06184082 52.29387207 71.9375 51.6875 C69.63178953 50.4211316 67.32712644 49.15285461 65.0234375 47.8828125 C64.4346431 47.55928299 63.84584869 47.23575348 63.23921204 46.90242004 C57.45654067 43.71876451 51.75396365 40.40568072 46.0625 37.0625 C36.36898854 31.37792892 26.64633062 25.74659066 16.90258789 20.14868164 C11.20140389 16.86796071 5.54574505 13.53517578 -0.04345703 10.06640625 C-1.92130018 8.84047475 -1.92130018 8.84047475 -4 9 Z " fill="#351D66" transform="translate(229,156)"/>
<path d="M0 0 C7.26 0 14.52 0 22 0 C22 35.97 22 71.94 22 109 C14.74 109 7.48 109 0 109 C0 73.03 0 37.06 0 0 Z " fill="#FEFEFD" transform="translate(312,356)"/>
<path d="M0 0 C-0.59047874 0.65851707 -0.59047874 0.65851707 -1.19288635 1.33033752 C-4.38372914 4.95747642 -6.99276582 8.51005168 -9.40234375 12.71484375 C-14.62643795 20.35517987 -20.03530472 26.87732407 -29 30 C-49.32234186 33.77026063 -71.52592834 31.41655588 -92 30 C-91.6063475 29.56098862 -91.21269501 29.12197723 -90.80711365 28.66966248 C-87.61627086 25.04252358 -85.00723418 21.48994832 -82.59765625 17.28515625 C-64.37066537 -9.37216107 -28.51038327 -1.97257057 0 0 Z " fill="#FAF9F9" transform="translate(454,316)"/>
<path d="M0 0 C0.93288345 0.48661606 0.93288345 0.48661606 1.88461304 0.98306274 C3.85280403 2.01291324 5.81297983 3.05708013 7.7734375 4.1015625 C9.09587139 4.79519204 10.41878454 5.48790868 11.7421875 6.1796875 C16.95037447 8.91308719 22.13009776 11.65360674 27.1484375 14.7265625 C24.51909903 16.47945482 23.04899751 17.16698378 20.10546875 17.953125 C19.29078125 18.17637451 18.47609375 18.39962402 17.63671875 18.62963867 C16.75371094 18.86787354 15.87070312 19.1061084 14.9609375 19.3515625 C7.81878784 21.32528155 0.76830415 23.46824608 -6.24633789 25.85742188 C-9.31083371 26.90020337 -12.38443979 27.91123322 -15.4609375 28.91796875 C-18.54651106 29.93078656 -21.56312946 30.99200333 -24.5546875 32.25390625 C-31.03385857 34.58806916 -34.99979515 33.62048972 -41.05859375 30.79785156 C-45.41178312 28.59025591 -49.63017239 26.17419721 -53.8515625 23.7265625 C-55.46266502 22.82940956 -57.07587595 21.93602999 -58.69140625 21.046875 C-62.43451534 18.97864451 -66.14941495 16.86718972 -69.8515625 14.7265625 C-67.76479058 12.63979058 -66.8041339 12.22680302 -64.06713867 11.36962891 C-63.2883989 11.12242096 -62.50965912 10.87521301 -61.70732117 10.62051392 C-60.86160049 10.35902557 -60.01587982 10.09753723 -59.14453125 9.828125 C-58.26815506 9.55189301 -57.39177887 9.27566101 -56.48884583 8.99105835 C-53.67404185 8.10540211 -50.85661714 7.22842381 -48.0390625 6.3515625 C-46.18276687 5.76878895 -44.32664499 5.18546168 -42.47070312 4.6015625 C-38.88604092 3.47436042 -35.29840311 2.357444 -31.70849609 1.24707031 C-28.75001664 0.32932559 -25.80577184 -0.61594929 -22.87353516 -1.61425781 C-21.74866699 -1.98905273 -20.62379883 -2.36384766 -19.46484375 -2.75 C-18.06359253 -3.23460693 -18.06359253 -3.23460693 -16.6340332 -3.72900391 C-10.34237547 -4.96006443 -5.50795994 -2.90222654 0 0 Z " fill="#FBD88B" transform="translate(422.8515625,249.2734375)"/>
<path d="M0 0 C3.12912467 1.25164987 5.71373125 2.30141437 8.55078125 3.9453125 C9.16630859 4.29980469 9.78183594 4.65429688 10.41601562 5.01953125 C11.35477539 5.56673828 11.35477539 5.56673828 12.3125 6.125 C12.95767578 6.49753906 13.60285156 6.87007812 14.26757812 7.25390625 C15.84675945 8.16632213 17.42361864 9.08275509 19 10 C19.39502232 20.51738368 19.69648058 31.03298815 19.88080692 41.55629539 C19.96931451 46.4440147 20.08914875 51.32663999 20.2824707 56.21142578 C20.46811883 60.93221912 20.56899446 65.64814021 20.61291313 70.37230301 C20.64417297 72.16786119 20.70523976 73.9631704 20.79741096 75.75663376 C21.36234424 87.21169689 21.36234424 87.21169689 19 92 C14.42735181 96.73235557 8.16667253 99.8368311 2 102 C1.34 102 0.68 102 0 102 C0 68.34 0 34.68 0 0 Z " fill="#FAF9FB" transform="translate(225,165)"/>
<path d="M0 0 C1.01725914 0.53058266 1.01725914 0.53058266 2.05506897 1.07188416 C4.19950551 2.19320357 6.33604082 3.32870506 8.47265625 4.46484375 C9.93374462 5.23207306 11.39532886 5.99835884 12.85742188 6.76367188 C16.42249305 8.63236823 19.980555 10.51381308 23.53515625 12.40234375 C23.53515625 13.39234375 23.53515625 14.38234375 23.53515625 15.40234375 C23.00692261 15.56663376 22.47868896 15.73092377 21.93444824 15.90019226 C16.35225492 17.63637652 10.7701089 19.37271283 5.18798828 21.10913086 C3.11475781 21.7540253 1.04151595 22.39888313 -1.03173828 23.04370117 C-3.04585619 23.67013175 -5.05993523 24.29668735 -7.07397461 24.92337036 C-9.05894236 25.5406791 -11.04413035 26.1572801 -13.02954102 26.77316284 C-17.48035312 28.15506219 -21.92750952 29.54558309 -26.36328125 30.97509766 C-27.4691156 31.3290435 -27.4691156 31.3290435 -28.59729004 31.69013977 C-30.53302284 32.31107553 -32.46679371 32.9381185 -34.40039062 33.56567383 C-37.46484375 34.40234375 -37.46484375 34.40234375 -41.46484375 34.40234375 C-41.635 33.88027344 -41.80515625 33.35820312 -41.98046875 32.8203125 C-43.41945504 28.44977435 -44.94518742 24.13755883 -46.58984375 19.83984375 C-48.2647536 15.3009659 -49.10140686 11.21788258 -49.46484375 6.40234375 C-43.68543666 4.18204401 -37.87135785 2.19333253 -31.96484375 0.33984375 C-31.16175781 0.08396484 -30.35867188 -0.17191406 -29.53125 -0.43554688 C-27.18136643 -1.17631244 -24.82548038 -1.89198731 -22.46484375 -2.59765625 C-21.76230469 -2.81663574 -21.05976563 -3.03561523 -20.3359375 -3.26123047 C-12.57750184 -5.4904727 -6.91175781 -3.71255766 0 0 Z " fill="#FCD98B" transform="translate(351.46484375,272.59765625)"/>
<path d="M0 0 C21.78 0 43.56 0 66 0 C64.02 2.31 62.04 4.62 60 7 C58.55685824 8.90166239 57.11788233 10.80649518 55.68359375 12.71484375 C41.57115129 30.01852138 41.57115129 30.01852138 29.80680847 31.33909607 C19.82323588 31.96930345 9.92019869 31.10106227 0 30 C0 20.1 0 10.2 0 0 Z " fill="#FAFAFB" transform="translate(312,316)"/>
<path d="M0 0 C7.07499509 7.07499509 1 19.99444599 1 30 C-20.45 30 -41.9 30 -64 30 C-62.02 27.69 -60.04 25.38 -58 23 C-56.53512142 21.09708068 -55.07278166 19.19220363 -53.61328125 17.28515625 C-38.16124426 -1.43164619 -23.66814828 -3.82436691 0 0 Z " fill="#FBF9F9" transform="translate(502,316)"/>
<path d="M0 0 C8.24142313 20.78271919 8.24142313 20.78271919 8 28 C-17.09156547 38.17000328 -17.09156547 38.17000328 -26 36 C-29.14920716 34.64516749 -32.12755351 33.0350215 -35.125 31.375 C-35.95233643 30.92785645 -36.77967285 30.48071289 -37.63208008 30.02001953 C-39.30126231 29.11678869 -40.96805491 28.20912658 -42.63232422 27.296875 C-45.40267463 25.77943827 -48.18553865 24.28633067 -50.97021484 22.79541016 C-53.31735085 21.53742 -55.65895966 20.26928938 -58 19 C-58 18.34 -58 17.68 -58 17 C-47.66908974 13.65913371 -37.33605946 10.32490252 -27 7 C-25.92669434 6.65469238 -24.85338867 6.30938477 -23.74755859 5.95361328 C-21.12445087 5.11147885 -18.50011282 4.27335948 -15.875 3.4375 C-14.76064575 3.07954346 -14.76064575 3.07954346 -13.6237793 2.71435547 C-9.0470601 1.263846 -4.81579495 0 0 0 Z " fill="#FBD78B" transform="translate(484,223)"/>
<path d="M0 0 C8.58 0 17.16 0 26 0 C26.04898438 2.95066406 26.09796875 5.90132813 26.1484375 8.94140625 C26.2025213 11.81425844 26.2597997 14.68703052 26.31738281 17.55981445 C26.35555261 19.549011 26.39042598 21.53827374 26.421875 23.52758789 C26.46778697 26.3949339 26.52573747 29.26182888 26.5859375 32.12890625 C26.59748871 33.01147598 26.60903992 33.89404572 26.62094116 34.80335999 C26.741227 39.89057293 27.36925176 44.1735574 29 49 C25.27124612 49.14560195 21.54322566 49.23417043 17.8125 49.3125 C16.22985352 49.3753418 16.22985352 49.3753418 14.61523438 49.43945312 C6.76702787 49.56324187 6.76702787 49.56324187 2.82421875 46.66796875 C0.52569881 43.30632182 -0.12577007 40.87527233 -0.11352539 36.89575195 C-0.11344986 36.07512772 -0.11337433 35.25450348 -0.11329651 34.40901184 C-0.10813522 33.52767075 -0.10297394 32.64632965 -0.09765625 31.73828125 C-0.0962413 30.83248825 -0.09482635 29.92669525 -0.09336853 28.99345398 C-0.08777001 26.09976909 -0.07521781 23.20616151 -0.0625 20.3125 C-0.05748481 18.35091258 -0.05292193 16.38932394 -0.04882812 14.42773438 C-0.03865187 9.61843582 -0.01907613 4.80930447 0 0 Z " fill="#FEFEFE" transform="translate(9,339)"/>
<path d="M0 0 C1.09667969 2.14550781 1.09667969 2.14550781 1.921875 4.953125 C2.22480469 5.96503906 2.52773438 6.97695313 2.83984375 8.01953125 C3.14019531 9.08558594 3.44054687 10.15164063 3.75 11.25 C4.06582031 12.30058594 4.38164062 13.35117187 4.70703125 14.43359375 C6.07043408 19.09041119 7.19680868 23.11516421 7 28 C4.91891315 28.67364661 2.8350329 29.33866798 0.75 30 C-0.41015625 30.37125 -1.5703125 30.7425 -2.765625 31.125 C-6 32 -6 32 -10 32 C-10.17015625 31.47792969 -10.3403125 30.95585937 -10.515625 30.41796875 C-11.95461129 26.0474306 -13.48034367 21.73521508 -15.125 17.4375 C-16.79990985 12.89862215 -17.63656311 8.81553883 -18 4 C-16.05670503 3.26288811 -14.11266001 2.52766538 -12.1640625 1.8046875 C-10.3548134 1.13193422 -8.55161797 0.44292999 -6.75 -0.25 C-3.81743398 -1.04979073 -2.74427502 -1.20638055 0 0 Z " fill="#FCFBFB" transform="translate(320,275)"/>
<path d="M0 0 C0 9.24 0 18.48 0 28 C-7.92 28 -15.84 28 -24 28 C-22.85285249 16.52852493 -21.46258866 11.55256469 -13 4.4453125 C-9.01207198 1.56341139 -5.01617923 0 0 0 Z " fill="#80D6FE" transform="translate(503,69)"/>
<path d="M0 0 C1.40387496 0.01306968 2.80778203 0.02302739 4.21170044 0.03001404 C7.89177926 0.05663416 11.56989783 0.12529658 15.24920654 0.20294189 C19.00961796 0.27478653 22.77034885 0.3065703 26.53125 0.34179688 C33.89932742 0.41668006 41.26579443 0.53601244 48.6328125 0.68359375 C47.0501941 3.63794038 45.35976663 5.71357748 42.6328125 7.68359375 C37.86054584 8.68498341 33.11561629 8.4998963 28.265625 8.3671875 C26.86175004 8.35411782 25.45784297 8.34416011 24.05392456 8.33717346 C20.37384574 8.31055334 16.69572717 8.24189092 13.01641846 8.16424561 C9.25600704 8.09240097 5.49527615 8.0606172 1.734375 8.02539062 C-5.63370242 7.95050744 -13.00016943 7.83117506 -20.3671875 7.68359375 C-15.7226414 -0.9865943 -8.92691531 -0.2442644 0 0 Z " fill="#FEDA8B" transform="translate(382.3671875,338.31640625)"/>
<path d="M0 0 C1.55220749 0.02331642 1.55220749 0.02331642 3.13577271 0.04710388 C4.31654388 0.0476326 5.49731506 0.04816132 6.71386719 0.04870605 C7.97345245 0.08483505 9.23303772 0.12096405 10.53079224 0.15818787 C12.48240768 0.17304482 12.48240768 0.17304482 14.47344971 0.1882019 C17.91685739 0.21480992 21.35816684 0.28345945 24.80075073 0.36112976 C28.31985084 0.43300207 31.83929326 0.4647639 35.35891724 0.49998474 C42.25300326 0.57484511 49.14570302 0.6941647 56.03860474 0.84178162 C56.03860474 3.15178162 56.03860474 5.46178162 56.03860474 7.84178162 C34.58860474 7.84178162 13.13860474 7.84178162 -8.96139526 7.84178162 C-2.96139526 0.84178162 -2.96139526 0.84178162 0 0 Z " fill="#FEDA8B" transform="translate(446.9613952636719,338.15821838378906)"/>
<path d="M0 0 C5.61 0 11.22 0 17 0 C17 2.31 17 4.62 17 7 C10.73 7 4.46 7 -2 7 C-1 2 -1 2 0 0 Z " fill="#FDBE73" transform="translate(486,339)"/>
<path d="M0 0 C0.78552246 0.01047363 1.57104492 0.02094727 2.38037109 0.03173828 C3.23115234 0.03818359 4.08193359 0.04462891 4.95849609 0.05126953 C6.29267578 0.07640625 6.29267578 0.07640625 7.65380859 0.10205078 C8.99958984 0.11558594 8.99958984 0.11558594 10.37255859 0.12939453 C12.59157445 0.15300108 14.81005937 0.18592768 17.02880859 0.22705078 C15.24615854 2.8363092 13.42094166 5.15067928 11.02880859 7.22705078 C7.98377587 7.76531414 6.11365379 7.92554488 3.15380859 7.66455078 C2.12126953 7.61717773 2.12126953 7.61717773 1.06787109 7.56884766 C-0.61369033 7.48710509 -2.29302637 7.36156019 -3.97119141 7.22705078 C-4.09619141 4.85205078 -4.09619141 4.85205078 -3.97119141 2.22705078 C-1.97119141 0.22705078 -1.97119141 0.22705078 0 0 Z " fill="#FEDA8C" transform="translate(337.97119140625,338.77294921875)"/>
<path d="M0 0 C0 3.96 0 7.92 0 12 C-2.08153935 12.13536022 -4.16561206 12.23215465 -6.25 12.3125 C-7.41015625 12.37050781 -8.5703125 12.42851562 -9.765625 12.48828125 C-13 12 -13 12 -15.421875 9.48046875 C-16.20304687 8.25263672 -16.20304687 8.25263672 -17 7 C-16.34773438 6.74605469 -15.69546875 6.49210937 -15.0234375 6.23046875 C-10.82129834 4.57564403 -4.28959834 0 0 0 Z " fill="#DFD8ED" transform="translate(302,322)"/>
</svg>
